<?xml version="1.0" standalone="no"?>
<!DOCTYPE svg PUBLIC "-//W3C//DTD SVG 20010904//EN"
 "http://www.w3.org/TR/2001/REC-SVG-20010904/DTD/svg10.dtd">
<svg version="1.0" xmlns="http://www.w3.org/2000/svg"
 width="960.000000pt" height="943.000000pt" viewBox="0 0 960.000000 943.000000"
 preserveAspectRatio="xMidYMid meet">

<g transform="translate(0.000000,943.000000) scale(0.100000,-0.100000)"
fill="#000000" stroke="none">
<path d="M4953 8893 c-7 -2 -15 -21 -18 -41 -3 -20 -13 -68 -22 -105 -8 -37
-12 -71 -9 -75 4 -3 30 -13 59 -22 l52 -16 -1 -44 c0 -25 -10 -92 -21 -150
-12 -58 -25 -130 -31 -160 -5 -30 -17 -91 -27 -135 -9 -44 -19 -90 -21 -103
-3 -16 -10 -22 -22 -18 -9 2 -38 7 -63 11 -44 5 -47 4 -57 -22 -14 -36 -46
-202 -40 -208 8 -8 199 -46 282 -56 44 -5 116 -18 160 -29 45 -10 90 -20 100
-22 18 -3 22 10 43 116 12 66 21 120 20 121 -1 0 -29 7 -62 15 -60 15 -60 15
-57 49 2 19 11 59 21 90 16 53 19 56 47 53 42 -3 251 -42 304 -56 50 -14 49
-8 30 -124 l-12 -73 -64 6 c-49 6 -65 4 -69 -6 -6 -16 -44 -223 -41 -226 1 -1
50 -9 110 -18 59 -9 183 -31 274 -49 92 -19 168 -33 169 -32 1 1 11 47 22 103
12 56 24 108 27 116 4 10 -11 17 -56 27 -34 7 -64 19 -67 27 -3 8 1 47 10 86
22 104 77 373 88 432 15 78 18 80 86 68 32 -6 61 -9 66 -6 4 2 7 19 8 36 0 37
23 164 33 188 9 20 10 20 -220 58 -227 38 -305 52 -325 57 -13 4 -18 -7 -23
-52 -4 -32 -15 -84 -26 -117 -11 -33 -18 -62 -17 -64 2 -2 30 -8 63 -14 32 -6
62 -14 66 -17 4 -4 -2 -44 -14 -90 -22 -81 -22 -82 -54 -82 -18 0 -44 4 -58 9
-13 6 -84 22 -158 37 -73 14 -134 28 -136 29 -2 2 4 40 12 85 9 45 16 84 16
87 0 3 29 2 64 -2 l65 -6 6 48 c3 26 12 68 20 93 21 64 19 79 -12 91 -16 6
-129 31 -253 55 -124 25 -232 46 -240 48 -8 3 -20 2 -27 -1z m957 -333 c0 -5
-4 -10 -10 -10 -5 0 -10 5 -10 10 0 6 5 10 10 10 6 0 10 -4 10 -10z m24 -45
c3 -8 1 -15 -3 -15 -5 0 -11 7 -15 15 -3 8 -1 15 3 15 5 0 11 -7 15 -15z
m-744 -94 c0 -12 -20 -25 -27 -18 -7 7 6 27 18 27 5 0 9 -4 9 -9z m630 -21 c0
-5 -5 -10 -11 -10 -5 0 -7 5 -4 10 3 6 8 10 11 10 2 0 4 -4 4 -10z m90 -5 c0
-8 -4 -15 -10 -15 -5 0 -10 7 -10 15 0 8 5 15 10 15 6 0 10 -7 10 -15z m-790
-5 c0 -5 -4 -10 -10 -10 -5 0 -10 5 -10 10 0 6 5 10 10 10 6 0 10 -4 10 -10z
m56 -10 c15 -6 24 -13 22 -16 -8 -8 -58 7 -58 17 0 11 3 11 36 -1z m644 -40
c0 -5 -5 -10 -11 -10 -5 0 -7 5 -4 10 3 6 8 10 11 10 2 0 4 -4 4 -10z m-610
-34 c0 -7 -6 -19 -14 -25 -11 -9 -15 -7 -19 8 -4 18 4 28 26 30 4 1 7 -5 7
-13z m-110 -6 c0 -5 -2 -10 -4 -10 -3 0 -8 5 -11 10 -3 6 -1 10 4 10 6 0 11
-4 11 -10z m380 -14 c0 -3 -4 -8 -10 -11 -5 -3 -10 -1 -10 4 0 6 5 11 10 11 6
0 10 -2 10 -4z m-370 -27 c0 -20 7 -21 56 -2 7 2 15 0 19 -6 3 -7 -2 -11 -14
-11 -21 0 -27 -11 -14 -23 3 -4 13 -2 20 5 11 9 17 9 24 -3 13 -21 12 -25 -18
-56 -18 -19 -24 -22 -20 -10 4 10 7 22 7 27 0 5 8 11 18 13 11 3 7 5 -10 6
-15 0 -29 5 -33 11 -3 5 -12 7 -20 3 -8 -3 -15 -1 -15 4 0 4 -10 14 -22 22
-19 12 -23 11 -39 -10 l-19 -24 0 23 c0 17 7 24 30 29 17 3 30 9 30 14 0 5 5
9 10 9 6 0 10 -9 10 -21z m490 -19 c0 -5 -5 -10 -11 -10 -5 0 -7 5 -4 10 3 6
8 10 11 10 2 0 4 -4 4 -10z m-520 -24 c0 -16 -18 -31 -27 -22 -8 8 5 36 17 36
5 0 10 -6 10 -14z m466 -11 c-3 -8 2 -19 12 -24 9 -5 13 -13 9 -17 -5 -5 -11
-4 -15 2 -13 21 -49 26 -56 8 -4 -9 -9 -14 -13 -11 -10 10 18 37 38 37 11 0
19 5 19 10 0 6 3 10 6 10 3 0 4 -7 0 -15z m-435 -45 c4 -3 4 -12 -1 -20 -8
-13 -10 -12 -10 3 0 14 -5 17 -20 12 -25 -8 -27 13 -2 31 14 11 18 10 21 -4 2
-9 7 -19 12 -22z m546 34 c-3 -3 -12 -4 -19 -1 -8 3 -5 6 6 6 11 1 17 -2 13
-5z m193 -33 c-1 -10 -40 -57 -40 -48 0 5 5 17 11 29 10 18 8 19 -13 13 -22
-6 -22 -5 -5 9 18 14 47 12 47 -3z m-704 -38 c-3 -10 -16 -24 -27 -32 -19 -11
-23 -11 -31 3 -5 9 -16 16 -24 16 -8 0 -13 4 -10 9 8 12 30 8 50 -8 13 -11 17
-9 26 14 11 30 26 28 16 -2z m514 8 c0 -5 -7 -12 -16 -15 -24 -9 -28 -7 -14 9
14 17 30 20 30 6z m-505 -51 c3 -5 1 -10 -4 -10 -6 0 -11 5 -11 10 0 6 2 10 4
10 3 0 8 -4 11 -10z m671 -22 c-3 -7 -9 -21 -12 -30 -4 -10 -11 -18 -16 -18
-5 0 -7 4 -3 9 3 5 0 13 -5 16 -7 5 -5 12 7 21 23 17 36 18 29 2z m-726 -38
c0 -5 -2 -10 -4 -10 -3 0 -8 5 -11 10 -3 6 -1 10 4 10 6 0 11 -4 11 -10z m750
-40 c0 -5 -4 -10 -10 -10 -5 0 -10 5 -10 10 0 6 5 10 10 10 6 0 10 -4 10 -10z
m-85 -40 c3 -5 1 -10 -4 -10 -6 0 -11 5 -11 10 0 6 2 10 4 10 3 0 8 -4 11 -10z
m85 -54 c0 -3 -4 -8 -10 -11 -5 -3 -10 -1 -10 4 0 6 5 11 10 11 6 0 10 -2 10
-4z m-43 -98 c-3 -34 -37 -55 -37 -24 0 9 7 16 16 16 11 0 14 6 9 20 -4 12 -2
20 5 20 7 0 10 -13 7 -32z"/>
<path d="M4510 8854 c-30 -8 -134 -25 -230 -39 -96 -14 -233 -34 -305 -45 -71
-12 -177 -28 -235 -36 -58 -9 -120 -21 -138 -26 l-33 -10 6 -56 c4 -32 16 -96
26 -144 10 -48 19 -98 19 -110 0 -13 5 -40 11 -60 12 -45 20 -46 164 -23 50 8
92 14 94 15 2 0 1 35 -2 79 -6 76 -6 78 19 90 41 18 73 14 83 -11 11 -31 81
-511 81 -558 0 -14 -10 -20 -42 -25 -79 -12 -80 -13 -75 -53 15 -120 31 -194
44 -199 7 -3 73 6 146 21 114 22 256 46 375 63 29 4 33 7 28 26 -3 13 -10 63
-15 112 -6 48 -14 92 -19 97 -5 5 -30 4 -57 -2 -78 -18 -69 -39 -105 240 -11
85 -28 194 -37 242 -18 95 -14 111 33 122 37 10 49 -6 73 -85 24 -78 29 -80
115 -54 27 8 66 15 87 15 75 0 79 9 55 126 -8 38 -22 118 -31 179 -9 60 -19
113 -21 117 -7 11 -50 8 -114 -8z m-220 -104 c0 -5 -7 -10 -15 -10 -8 0 -15 5
-15 10 0 6 7 10 15 10 8 0 15 -4 15 -10z m-72 -29 c3 -8 -1 -12 -9 -9 -7 2
-15 10 -17 17 -3 8 1 12 9 9 7 -2 15 -10 17 -17z m274 -33 c-7 -7 -12 -8 -12
-2 0 14 12 26 19 19 2 -3 -1 -11 -7 -17z m-237 2 c3 -5 1 -10 -4 -10 -6 0 -11
5 -11 10 0 6 2 10 4 10 3 0 8 -4 11 -10z m195 -45 c-7 -8 -17 -15 -23 -15 -5
0 -2 9 8 20 21 23 35 19 15 -5z m-140 -10 c-7 -8 -16 -12 -21 -9 -13 8 -1 24
18 24 13 0 13 -3 3 -15z m-240 -175 c0 -5 -5 -10 -11 -10 -5 0 -7 5 -4 10 3 6
8 10 11 10 2 0 4 -4 4 -10z m106 -29 c-12 -19 -24 -12 -19 10 4 13 9 17 15 11
6 -6 7 -15 4 -21z m39 -30 c-16 -14 -63 -22 -70 -12 -6 10 16 18 55 20 14 1
20 -3 15 -8z m-95 -17 c0 -8 -4 -12 -10 -9 -5 3 -10 10 -10 16 0 5 5 9 10 9 6
0 10 -7 10 -16z m131 -37 c-1 -4 -1 -15 -1 -26 0 -10 -9 -21 -20 -24 -11 -3
-20 -1 -20 4 0 5 5 9 12 9 9 0 9 3 1 11 -9 9 -8 15 0 25 12 13 29 14 28 1z
m-101 -64 c11 -10 20 -23 20 -30 0 -7 5 -13 10 -13 6 0 10 5 10 10 0 6 7 10
15 10 8 0 15 5 15 10 0 6 7 10 15 10 8 0 15 -4 15 -10 0 -5 6 -10 14 -10 14 0
32 -18 25 -24 -2 -2 -19 -7 -36 -11 -23 -4 -33 -3 -33 5 0 7 7 10 15 6 9 -3
15 0 15 9 0 8 -6 15 -14 15 -17 0 -31 -35 -20 -51 7 -12 6 -12 -38 10 -33 17
-58 9 -58 -19 0 -26 -16 -26 -23 1 -4 15 2 25 23 38 28 16 28 19 14 39 -18 26
-12 28 16 5z m4 -96 c-3 -9 -10 -17 -15 -17 -11 0 -12 34 -2 44 11 11 24 -9
17 -27z m136 18 c0 -8 -4 -15 -9 -15 -13 0 -22 16 -14 24 11 11 23 6 23 -9z
m-100 -39 c0 -26 -25 -42 -36 -24 -4 7 -2 14 4 16 7 2 12 10 12 18 0 8 5 14
10 14 6 0 10 -11 10 -24z m90 4 c0 -5 -2 -10 -4 -10 -3 0 -8 5 -11 10 -3 6 -1
10 4 10 6 0 11 -4 11 -10z m-60 -26 c0 -8 -4 -12 -10 -9 -5 3 -10 10 -10 16 0
5 5 9 10 9 6 0 10 -7 10 -16z m39 -11 c0 -25 -1 -26 -9 -8 -12 27 -12 35 0 35
6 0 10 -12 9 -27z m-28 -23 c15 0 10 -27 -8 -41 -10 -7 -15 -9 -11 -5 11 13
-11 36 -28 29 -8 -3 -14 -1 -14 5 0 13 21 22 38 16 8 -2 18 -4 23 -4z m59 -20
c0 -5 -4 -10 -10 -10 -5 0 -10 5 -10 10 0 6 5 10 10 10 6 0 10 -4 10 -10z
m-30 -70 c0 -5 -4 -10 -10 -10 -5 0 -10 5 -10 10 0 6 5 10 10 10 6 0 10 -4 10
-10z m70 -139 c0 -12 -20 -25 -27 -18 -7 7 6 27 18 27 5 0 9 -4 9 -9z m-127
-51 c-3 -11 -9 -20 -15 -20 -5 0 -4 9 2 20 6 11 12 20 14 20 2 0 2 -9 -1 -20z
m217 -26 c0 -8 -4 -12 -10 -9 -5 3 -10 10 -10 16 0 5 5 9 10 9 6 0 10 -7 10
-16z m-240 -28 c0 -11 -19 -15 -25 -6 -3 5 1 10 9 10 9 0 16 -2 16 -4z"/>
<path d="M4684 8785 c3 -8 10 -55 16 -103 6 -48 15 -103 20 -122 12 -41 13
-110 2 -126 -13 -21 -51 -34 -111 -40 -67 -7 -87 -16 -76 -34 5 -8 22 -10 49
-7 22 4 71 10 108 16 36 5 72 12 78 16 14 8 12 31 -19 230 -22 148 -34 185
-57 185 -10 0 -14 -5 -10 -15z"/>
<path d="M5516 8673 c-2 -10 -7 -48 -11 -85 -3 -36 -12 -68 -18 -71 -7 -2 -36
-1 -65 3 -60 7 -61 6 -65 -55 -1 -30 2 -40 15 -43 12 -2 17 5 20 25 3 28 3 28
69 25 l67 -2 7 56 c4 31 12 75 19 98 7 23 11 47 8 54 -6 18 -40 14 -46 -5z"/>
<path d="M3292 8579 c-29 -10 -98 -39 -153 -64 -55 -25 -131 -57 -170 -71 -85
-31 -139 -61 -139 -79 0 -7 13 -41 29 -76 15 -35 33 -77 39 -92 17 -40 36 -43
93 -14 l51 25 19 -42 c10 -22 19 -47 19 -55 0 -8 13 -37 29 -65 15 -28 40 -82
54 -121 14 -38 46 -119 71 -179 25 -60 46 -111 46 -113 0 -2 -25 -15 -55 -28
-30 -14 -55 -31 -55 -38 0 -7 11 -35 24 -63 13 -27 33 -70 44 -96 13 -30 27
-48 38 -48 9 0 102 39 208 86 105 48 209 93 231 100 21 8 47 22 56 30 17 15
16 20 -11 97 -17 44 -36 90 -45 103 l-15 23 -60 -21 c-34 -11 -62 -19 -64 -17
-1 2 -21 47 -43 99 -22 52 -75 175 -117 272 -42 98 -76 185 -76 193 0 8 8 15
18 15 25 0 82 37 82 54 0 20 -68 178 -83 192 -9 9 -25 7 -65 -7z m-102 -113
c0 -3 -4 -8 -10 -11 -5 -3 -10 -1 -10 4 0 6 5 11 10 11 6 0 10 -2 10 -4z m-90
-26 c0 -5 -4 -10 -10 -10 -5 0 -10 5 -10 10 0 6 5 10 10 10 6 0 10 -4 10 -10z
m-30 -10 c0 -5 -2 -10 -4 -10 -3 0 -8 5 -11 10 -3 6 -1 10 4 10 6 0 11 -4 11
-10z m-33 -22 c-2 -7 -12 -12 -21 -12 -17 2 -20 -5 -10 -30 5 -13 10 -14 20
-6 10 9 15 2 24 -32 7 -24 13 -45 14 -48 0 -3 -18 -6 -40 -7 -32 -2 -43 1 -48
15 -3 9 -9 23 -12 30 -3 7 1 12 10 12 10 0 16 -9 16 -22 0 -12 3 -19 6 -16 3
3 2 22 -2 42 -6 35 -7 36 -24 21 -17 -16 -18 -15 -16 9 4 30 2 28 36 43 34 16
53 16 47 1z m113 -7 c0 -6 -4 -13 -10 -16 -5 -3 -10 1 -10 9 0 9 5 16 10 16 6
0 10 -4 10 -9z m52 -51 c18 -16 19 -20 6 -20 -9 0 -19 6 -22 13 -5 10 -7 10
-12 0 -3 -7 -13 -13 -22 -13 -13 0 -12 3 4 19 24 25 21 25 46 1z m-79 3 c-18
-6 -16 -43 2 -43 8 0 15 -4 15 -10 0 -17 -25 -11 -48 10 -32 30 -28 47 11 47
17 0 26 -2 20 -4z m-174 -43 c0 -9 -2 -11 -5 -3 -3 7 -11 11 -17 9 -7 -1 -9
-1 -4 1 4 3 7 12 7 21 0 15 2 15 10 2 5 -8 9 -22 9 -30z m226 -10 c3 -5 1 -10
-4 -10 -6 0 -11 5 -11 10 0 6 2 10 4 10 3 0 8 -4 11 -10z m77 -32 c-6 -6 -15
-8 -19 -4 -4 4 -1 11 7 16 19 12 27 3 12 -12z m-22 -48 c0 -5 -2 -10 -4 -10
-3 0 -8 5 -11 10 -3 6 -1 10 4 10 6 0 11 -4 11 -10z m70 -6 c0 -8 -4 -12 -10
-9 -5 3 -10 10 -10 16 0 5 5 9 10 9 6 0 10 -7 10 -16z m-91 -63 c-3 -6 -10 -7
-18 -2 -7 5 -10 14 -6 21 9 14 29 -2 24 -19z m61 -122 c0 -11 -3 -11 -24 -3
-23 9 -20 23 4 17 11 -3 20 -9 20 -14z m50 -19 c0 -5 -4 -10 -10 -10 -5 0 -10
5 -10 10 0 6 5 10 10 10 6 0 10 -4 10 -10z"/>
<path d="M6229 8568 c0 -2 -6 -46 -13 -98 l-11 -95 -40 0 c-22 0 -55 3 -72 7
-29 7 -33 5 -37 -15 -3 -12 -21 -103 -41 -202 -20 -99 -42 -208 -49 -242 -12
-57 -12 -62 5 -66 15 -4 22 5 34 46 17 55 50 218 66 327 5 35 16 74 24 86 13
21 17 21 74 9 l60 -12 6 46 c3 25 12 80 20 121 11 58 12 76 2 82 -12 8 -26 10
-28 6z"/>
<path d="M3433 8533 c3 -10 16 -47 30 -83 13 -36 22 -72 20 -81 -2 -9 -23 -26
-46 -39 -23 -13 -44 -24 -46 -26 -2 -2 30 -78 70 -171 40 -92 87 -202 104
-243 26 -60 36 -74 51 -72 11 2 20 5 21 6 3 2 -132 317 -168 392 -30 63 -26
79 27 99 25 9 48 23 50 29 5 12 -47 152 -69 188 -16 24 -51 25 -44 1z"/>
<path d="M4343 8504 c11 -36 37 -189 47 -279 20 -180 31 -226 48 -223 20 4 19
21 -9 223 -20 145 -58 286 -79 293 -8 3 -10 -2 -7 -14z"/>
<path d="M3937 8454 c-4 -4 -4 -38 -1 -75 5 -45 3 -73 -4 -82 -13 -15 -95 -36
-157 -40 -48 -2 -57 -30 -12 -35 27 -3 206 24 215 32 5 6 -19 176 -28 194 -3
7 -9 9 -13 6z"/>
<path d="M2399 8173 c-236 -221 -299 -282 -299 -290 1 -4 34 -43 74 -86 l73
-79 42 26 c22 14 47 26 54 26 8 0 19 -18 26 -41 7 -22 30 -69 51 -104 56 -91
92 -166 85 -173 -6 -7 -192 85 -247 120 -38 26 -298 158 -310 158 -5 0 -44
-34 -85 -75 l-75 -75 15 -39 c9 -21 68 -144 131 -273 64 -129 116 -237 116
-241 0 -16 -34 -4 -102 36 -40 24 -106 64 -147 88 -72 42 -98 69 -68 69 7 0
21 8 30 18 32 35 21 61 -59 139 -42 40 -82 73 -88 73 -6 0 -49 -40 -96 -88
-47 -49 -101 -100 -120 -114 -19 -14 -48 -44 -65 -66 -16 -22 -49 -52 -72 -66
-26 -15 -43 -33 -43 -44 0 -11 30 -53 68 -95 76 -87 98 -95 140 -47 15 17 33
30 40 30 17 0 316 -140 369 -173 21 -12 85 -44 141 -70 57 -26 145 -72 194
-102 50 -30 97 -55 105 -55 19 0 86 47 151 105 61 55 64 74 22 143 -16 26 -43
86 -59 134 -17 47 -46 122 -66 168 -38 89 -42 110 -21 110 7 0 111 -47 231
-105 119 -58 225 -105 234 -105 9 0 35 18 56 41 22 22 59 54 83 70 49 35 52
51 17 120 -14 27 -37 82 -51 121 -14 38 -51 125 -81 192 -30 66 -65 151 -78
187 -12 36 -34 83 -47 105 -26 41 -68 156 -68 186 0 9 13 24 30 33 56 29 52
43 -36 132 l-82 83 -113 -107z m198 -599 c-9 -9 -28 6 -21 18 4 6 10 6 17 -1
6 -6 8 -13 4 -17z m68 -24 c8 -13 -15 -13 -35 0 -12 8 -11 10 7 10 12 0 25 -4
28 -10z m-457 -52 c-6 -18 -28 -21 -28 -4 0 9 7 16 16 16 9 0 14 -5 12 -12z
m20 -36 c2 -7 -3 -12 -12 -12 -9 0 -16 7 -16 16 0 17 22 14 28 -4z m62 3 c0
-8 -4 -15 -10 -15 -5 0 -7 7 -4 15 4 8 8 15 10 15 2 0 4 -7 4 -15z m-180 -4
c0 -12 -20 -25 -27 -18 -7 7 6 27 18 27 5 0 9 -4 9 -9z m228 -10 c3 -8 -1 -12
-9 -9 -7 2 -15 10 -17 17 -3 8 1 12 9 9 7 -2 15 -10 17 -17z m-311 -23 c-3 -8
-6 -5 -6 6 -1 11 2 17 5 13 3 -3 4 -12 1 -19z m133 3 c0 -6 -4 -13 -10 -16 -5
-3 -10 1 -10 9 0 9 5 16 10 16 6 0 10 -4 10 -9z m142 -12 c-9 -24 -26 -27 -30
-5 -2 8 5 16 15 19 10 3 19 5 20 6 1 0 -1 -8 -5 -20z m406 -8 c3 -8 -1 -12 -9
-9 -7 2 -15 10 -17 17 -3 8 1 12 9 9 7 -2 15 -10 17 -17z m-288 -11 c0 -5 -4
-10 -10 -10 -5 0 -10 5 -10 10 0 6 5 10 10 10 6 0 10 -4 10 -10z m-142 -18 c6
-18 -15 -14 -22 4 -4 10 -1 14 6 12 6 -2 14 -10 16 -16z m-94 -8 c4 -9 4 -19
2 -22 -10 -9 -36 8 -36 23 0 20 26 19 34 -1z m201 6 c3 -5 1 -10 -4 -10 -6 0
-11 5 -11 10 0 6 2 10 4 10 3 0 8 -4 11 -10z m215 -26 c0 -8 -4 -12 -10 -9 -5
3 -10 10 -10 16 0 5 5 9 10 9 6 0 10 -7 10 -16z m-305 -4 c3 -5 1 -10 -4 -10
-6 0 -11 5 -11 10 0 6 2 10 4 10 3 0 8 -4 11 -10z m115 0 c0 -5 -4 -10 -10
-10 -5 0 -10 5 -10 10 0 6 5 10 10 10 6 0 10 -4 10 -10z m260 0 c0 -5 -5 -10
-11 -10 -5 0 -7 5 -4 10 3 6 8 10 11 10 2 0 4 -4 4 -10z m-520 -10 c13 -8 13
-10 -2 -10 -9 0 -20 5 -23 10 -8 13 5 13 25 0z m430 -10 c0 -5 -4 -10 -10 -10
-5 0 -10 5 -10 10 0 6 5 10 10 10 6 0 10 -4 10 -10z m-310 -15 c0 -8 -4 -15
-9 -15 -13 0 -22 16 -14 24 11 11 23 6 23 -9z m150 -5 c0 -5 -4 -10 -10 -10
-5 0 -10 5 -10 10 0 6 5 10 10 10 6 0 10 -4 10 -10z m220 -15 c-7 -9 -15 -13
-17 -11 -7 7 7 26 19 26 6 0 6 -6 -2 -15z m-115 -15 c3 -5 1 -10 -4 -10 -6 0
-11 5 -11 10 0 6 2 10 4 10 3 0 8 -4 11 -10z m165 0 c0 -5 -2 -10 -4 -10 -3 0
-8 5 -11 10 -3 6 -1 10 4 10 6 0 11 -4 11 -10z m-190 -10 c0 -5 -4 -10 -9 -10
-6 0 -13 5 -16 10 -3 6 1 10 9 10 9 0 16 -4 16 -10z m50 -24 c0 -3 -4 -8 -10
-11 -5 -3 -10 -1 -10 4 0 6 5 11 10 11 6 0 10 -2 10 -4z m84 -2 c9 -3 16 -14
15 -23 0 -10 -2 -11 -6 -3 -2 6 -11 12 -19 12 -8 0 -14 5 -14 10 0 12 3 12 24
4z m76 -38 c0 -3 -4 -8 -10 -11 -5 -3 -10 -1 -10 4 0 6 5 11 10 11 6 0 10 -2
10 -4z m-470 -116 c0 -5 -4 -10 -10 -10 -5 0 -10 5 -10 10 0 6 5 10 10 10 6 0
10 -4 10 -10z m-30 -40 c0 -5 -5 -10 -11 -10 -5 0 -7 5 -4 10 3 6 8 10 11 10
2 0 4 -4 4 -10z m60 -21 c0 -6 -4 -7 -10 -4 -5 3 -10 11 -10 16 0 6 5 7 10 4
6 -3 10 -11 10 -16z m-397 -66 c-6 -14 -42 -28 -51 -19 -3 4 4 15 16 26 12 12
22 26 23 33 0 7 4 3 8 -8 5 -11 6 -25 4 -32z m305 28 c3 -8 -1 -12 -9 -9 -7 2
-15 10 -17 17 -3 8 1 12 9 9 7 -2 15 -10 17 -17z m-398 -11 c0 -5 -2 -10 -4
-10 -3 0 -8 5 -11 10 -3 6 -1 10 4 10 6 0 11 -4 11 -10z m138 -21 c-2 -3 3
-13 10 -21 11 -14 8 -15 -17 -14 -16 1 -33 5 -38 10 -5 5 -1 7 10 3 13 -5 17
-1 17 14 0 11 5 19 11 17 6 -2 9 -6 7 -9z m82 -9 c6 -11 8 -25 5 -30 -3 -5 -1
-11 5 -15 5 -3 10 -1 10 5 0 7 7 4 16 -5 9 -9 13 -19 10 -23 -4 -3 -11 0 -15
7 -5 8 -11 9 -15 3 -3 -6 -14 -8 -25 -5 -15 4 -18 0 -14 -20 3 -14 0 -28 -6
-31 -6 -4 -11 0 -11 8 0 9 -7 16 -15 16 -18 0 -20 20 -2 21 6 0 3 4 -8 9 -20
8 -20 9 1 9 11 1 29 7 40 15 18 14 18 15 1 33 -17 17 -18 17 -11 1 7 -20 -11
-25 -22 -7 -7 12 12 29 33 29 7 0 17 -9 23 -20z m-180 -30 c0 -5 -4 -10 -10
-10 -5 0 -10 5 -10 10 0 6 5 10 10 10 6 0 10 -4 10 -10z m44 -5 c16 -12 17
-15 4 -15 -8 0 -21 7 -28 15 -16 19 -1 19 24 0z m-24 -15 c0 -5 -4 -10 -10
-10 -5 0 -10 5 -10 10 0 6 5 10 10 10 6 0 10 -4 10 -10z m56 -30 c8 0 14 -7
14 -15 0 -8 -4 -15 -10 -15 -10 0 -31 33 -29 47 0 4 3 2 6 -4 2 -7 11 -13 19
-13z m310 -7 c-7 -7 -26 7 -26 19 0 6 6 6 15 -2 9 -7 13 -15 11 -17z m-71 -13
c3 -5 -1 -10 -9 -10 -9 0 -16 5 -16 10 0 6 4 10 9 10 6 0 13 -4 16 -10z m-185
-9 c0 -10 -30 -24 -37 -17 -3 3 -2 9 2 15 8 13 35 15 35 2z m300 -1 c0 -5 -4
-10 -10 -10 -5 0 -10 5 -10 10 0 6 5 10 10 10 6 0 10 -4 10 -10z m-245 -10
c-3 -5 1 -10 9 -10 10 0 16 -9 16 -22 0 -20 -1 -21 -20 -3 -21 19 -27 45 -9
45 5 0 7 -4 4 -10z m99 -31 c-25 -27 -37 -23 -18 6 9 14 20 22 26 19 5 -3 2
-14 -8 -25z m41 -19 c3 -5 2 -10 -4 -10 -5 0 -13 5 -16 10 -3 6 -2 10 4 10 5
0 13 -4 16 -10z"/>
<path d="M2616 8257 c-17 -12 -13 -18 44 -70 56 -50 62 -59 56 -84 -4 -15 -22
-40 -40 -56 l-33 -29 18 -52 c9 -28 36 -86 58 -129 23 -43 41 -84 41 -92 0 -8
30 -81 66 -162 37 -82 78 -177 91 -213 13 -36 38 -93 55 -127 35 -73 33 -100
-13 -135 -16 -13 -48 -39 -70 -57 -39 -34 -40 -35 -19 -43 19 -7 32 0 76 39
29 27 68 60 85 74 l33 26 -36 74 c-20 41 -45 99 -56 129 -11 30 -47 116 -80
190 -32 74 -65 153 -72 175 -7 22 -29 72 -50 110 -21 39 -46 97 -55 130 l-18
59 42 36 c22 20 41 43 41 51 0 9 -14 29 -30 45 -17 16 -46 50 -65 77 -38 51
-42 53 -69 34z"/>
<path d="M6983 8213 c-65 -77 -93 -114 -93 -124 0 -5 18 -20 40 -34 24 -15 40
-33 40 -44 0 -11 -19 -77 -41 -148 -23 -70 -63 -204 -90 -296 -26 -93 -66
-221 -88 -285 -60 -177 -60 -176 -14 -218 98 -92 175 -154 191 -154 9 0 71 26
137 59 66 32 131 62 145 66 14 4 136 63 272 131 136 68 263 126 282 129 28 6
41 2 69 -19 19 -14 41 -26 50 -26 17 0 122 118 140 158 11 23 8 28 -23 51 -18
14 -61 51 -94 82 -34 30 -77 65 -96 77 -19 11 -66 53 -105 91 -44 45 -77 71
-92 71 -25 0 -153 -140 -153 -168 0 -9 14 -29 32 -44 40 -32 37 -36 -63 -86
-41 -21 -133 -70 -205 -110 -86 -47 -137 -70 -148 -66 -21 8 -20 8 33 134 22
52 55 147 74 210 19 63 42 119 51 125 11 7 23 2 47 -20 l31 -30 68 73 c38 40
72 82 75 93 8 26 -1 36 -146 163 -220 191 -250 216 -264 216 -7 0 -35 -26 -62
-57z m-3 -633 c0 -5 -5 -10 -11 -10 -5 0 -7 5 -4 10 3 6 8 10 11 10 2 0 4 -4
4 -10z m-10 -105 c0 -8 -4 -15 -10 -15 -5 0 -10 7 -10 15 0 8 5 15 10 15 6 0
10 -7 10 -15z m34 -94 c-7 -8 -33 33 -27 43 3 5 12 -2 19 -15 7 -13 10 -26 8
-28z m627 26 c-13 -13 -26 -3 -16 12 3 6 11 8 17 5 6 -4 6 -10 -1 -17z m109
-33 c0 -8 -4 -12 -10 -9 -5 3 -10 10 -10 16 0 5 5 9 10 9 6 0 10 -7 10 -16z
m-217 -24 c-3 -11 -9 -20 -13 -20 -5 0 -6 9 -3 20 3 11 9 20 13 20 5 0 6 -9 3
-20z m-123 0 c0 -5 -2 -10 -4 -10 -3 0 -8 5 -11 10 -3 6 -1 10 4 10 6 0 11 -4
11 -10z m60 0 c0 -5 -4 -10 -10 -10 -5 0 -10 5 -10 10 0 6 5 10 10 10 6 0 10
-4 10 -10z m235 -20 c-3 -5 -11 -10 -16 -10 -6 0 -7 5 -4 10 3 6 11 10 16 10
6 0 7 -4 4 -10z m-372 -14 c4 -10 1 -13 -9 -9 -15 6 -19 23 -5 23 5 0 11 -7
14 -14z m52 4 c-3 -5 -10 -10 -16 -10 -5 0 -9 5 -9 10 0 6 7 10 16 10 8 0 12
-4 9 -10z m37 -13 c-1 -8 2 -18 8 -22 5 -3 10 -10 10 -15 0 -6 -9 -2 -20 7
-22 19 -28 57 -7 50 6 -2 11 -11 9 -20z m-102 -30 c0 -4 4 -5 10 -2 6 4 7 -5
4 -23 -4 -19 -1 -32 7 -37 9 -6 11 -3 6 8 -5 12 -1 17 12 17 19 0 22 -14 7
-38 -6 -11 -12 -10 -30 1 -16 11 -27 12 -40 5 -16 -9 -16 -11 3 -27 25 -22 11
-41 -29 -41 -14 0 -31 -5 -38 -12 -13 -13 -42 5 -42 27 0 8 -6 16 -12 19 -10
5 -10 7 -1 12 20 9 28 5 28 -13 0 -9 6 -18 14 -21 10 -3 12 0 7 13 -5 14 -2
16 14 12 11 -3 20 -1 20 4 0 5 -9 9 -20 9 -15 0 -22 9 -26 30 -7 35 -12 37
-30 13 -10 -15 -15 -16 -25 -5 -11 10 -9 12 5 12 15 0 16 3 6 15 -10 12 -9 15
5 15 9 0 28 9 42 20 26 20 53 26 53 12 0 -15 -22 -30 -36 -25 -18 7 -17 -17 0
-40 10 -13 15 -15 19 -5 3 10 9 11 25 1 29 -17 41 4 13 23 -12 8 -21 20 -21
27 0 8 3 8 12 -1 15 -15 28 -16 28 -2 0 6 -7 10 -15 10 -16 0 -20 12 -8 24 8
7 33 -21 33 -37z m64 8 c-4 -8 -1 -15 5 -15 6 0 11 -4 11 -10 0 -5 -9 -9 -20
-7 -22 4 -40 17 -22 17 7 0 12 7 12 15 0 8 4 15 10 15 5 0 7 -7 4 -15z m136
11 c0 -3 -4 -8 -10 -11 -5 -3 -10 -1 -10 4 0 6 5 11 10 11 6 0 10 -2 10 -4z
m-712 -51 c-6 -14 -15 -25 -20 -25 -11 0 -10 7 2 31 16 28 32 23 18 -6z m144
10 c0 -5 -5 -11 -11 -13 -6 -2 -11 4 -11 13 0 9 5 15 11 13 6 -2 11 -8 11 -13z
m-87 -55 c-3 -5 -11 -10 -16 -10 -6 0 -7 5 -4 10 3 6 11 10 16 10 6 0 7 -4 4
-10z m285 -19 c5 -11 6 -22 1 -25 -4 -3 -13 6 -19 19 -14 30 2 34 18 6z m-30
-21 c0 -5 -4 -10 -10 -10 -5 0 -10 5 -10 10 0 6 5 10 10 10 6 0 10 -4 10 -10z
m-290 -25 c0 -8 -9 -15 -20 -15 -22 0 -27 15 -7 23 21 9 27 7 27 -8z m170 -65
c0 -5 -2 -10 -4 -10 -3 0 -8 5 -11 10 -3 6 -1 10 4 10 6 0 11 -4 11 -10z m-55
-20 c3 -5 2 -10 -4 -10 -5 0 -13 5 -16 10 -3 6 -2 10 4 10 5 0 13 -4 16 -10z"/>
<path d="M5271 8054 c-13 -50 -9 -64 19 -64 12 0 21 10 25 30 7 30 8 31 53 24
26 -3 84 -14 129 -24 81 -18 82 -18 89 2 3 11 4 21 2 22 -5 4 -274 56 -290 56
-10 0 -20 -16 -27 -46z"/>
<path d="M4575 7888 c-3 -7 1 -48 9 -91 15 -89 10 -103 -47 -111 -55 -7 -411
-67 -434 -73 -15 -3 -23 -13 -23 -25 0 -25 18 -24 278 25 106 21 210 37 230
37 59 0 62 6 47 80 -8 36 -14 82 -15 102 0 20 -3 43 -6 52 -7 19 -33 21 -39 4z"/>
<path d="M5366 7842 c-2 -4 -9 -41 -16 -82 -18 -108 -22 -113 -78 -105 -26 4
-78 15 -117 25 -38 10 -95 21 -125 25 -30 3 -93 13 -138 22 -72 14 -85 14 -92
2 -5 -7 -6 -17 -2 -21 4 -4 71 -19 147 -33 77 -14 187 -35 245 -47 58 -11 121
-21 140 -22 l34 -1 13 70 c26 143 27 161 10 168 -9 3 -18 3 -21 -1z"/>
<path d="M7390 7745 c-35 -36 -70 -65 -76 -65 -6 0 -23 9 -37 20 l-25 20 -54
-158 c-30 -86 -58 -166 -63 -177 -9 -19 -8 -19 15 -4 25 17 77 131 101 222 7
26 19 47 26 47 7 0 13 -4 13 -10 0 -5 11 -10 24 -10 37 0 152 130 144 165 -2
11 -22 -4 -68 -50z"/>
<path d="M2064 7739 c-8 -13 8 -24 76 -54 25 -11 72 -36 105 -56 73 -45 166
-92 171 -87 2 2 1 13 -2 25 -4 14 -52 44 -165 102 -88 44 -164 81 -169 81 -5
0 -12 -5 -16 -11z"/>
<path d="M3782 7738 c2 -7 14 -45 27 -85 25 -72 25 -73 5 -94 -10 -12 -39 -31
-64 -41 -275 -120 -390 -174 -387 -182 9 -26 59 -12 235 67 103 47 207 93 232
103 69 26 71 29 56 77 -27 89 -68 167 -88 167 -11 0 -18 -6 -16 -12z"/>
<path d="M6055 7687 c-4 -13 -9 -55 -13 -93 -7 -67 -8 -69 -36 -72 -15 -2 -58
3 -95 12 -36 8 -118 25 -181 36 -63 12 -137 25 -163 31 -27 5 -53 7 -58 3 -11
-6 -12 -44 -1 -44 38 0 478 -79 533 -96 13 -4 18 10 29 73 6 43 18 96 26 118
7 21 12 40 11 41 -1 1 -12 5 -24 8 -18 6 -24 2 -28 -17z"/>
<path d="M4605 7470 c-702 -58 -1316 -334 -1814 -815 -445 -430 -740 -994
-840 -1605 -65 -401 -49 -789 50 -1185 200 -801 751 -1492 1491 -1869 79 -40
167 -82 196 -94 l54 -22 -22 -37 -21 -38 23 30 c50 65 76 82 162 114 136 49
289 72 523 78 181 5 205 4 229 -12 24 -15 26 -22 22 -64 -7 -67 -104 -270
-136 -282 -31 -12 -132 -11 -206 1 -33 5 -124 13 -203 16 -79 4 -142 8 -141 9
2 2 37 6 78 9 41 4 82 9 90 11 44 13 261 47 300 47 l45 0 -45 14 c-25 8 -85
22 -135 30 -117 21 -388 15 -528 -11 l-97 -18 -61 -85 c-37 -52 -53 -82 -42
-77 33 13 85 27 89 23 2 -3 -22 -12 -54 -22 -31 -10 -69 -30 -84 -44 l-27 -25
-7 42 c-8 52 -28 74 -58 65 -29 -9 -36 -22 -36 -70 0 -35 15 -100 26 -113 2
-2 13 4 23 13 22 20 151 48 331 72 141 19 494 22 635 5 55 -7 133 -21 173 -32
40 -10 73 -19 75 -19 1 0 2 53 3 118 1 94 5 130 23 182 23 66 48 117 36 73 -5
-18 -3 -21 17 -16 13 3 28 10 35 15 7 5 -2 -30 -18 -78 -28 -78 -30 -97 -27
-180 3 -87 5 -96 31 -121 23 -24 36 -28 85 -28 31 -1 66 -6 78 -12 17 -10 27
-8 52 7 18 11 32 23 32 28 0 4 22 16 49 26 62 22 99 58 107 104 6 31 -14 205
-32 277 l-5 20 17 -20 c16 -19 16 -18 11 25 -4 25 -9 61 -13 80 -12 63 9 22
32 -62 12 -46 23 -76 23 -67 1 22 41 29 158 29 84 0 94 2 83 15 -7 8 -10 15
-8 15 11 0 139 -55 227 -98 53 -26 101 -49 106 -50 26 -10 -42 33 -141 87 -60
34 -105 61 -101 61 12 0 131 -47 196 -79 36 -17 67 -29 69 -26 3 2 -5 21 -17
42 -19 33 -19 35 -2 15 11 -12 21 -27 23 -33 11 -32 421 168 623 303 180 120
277 200 441 363 231 229 394 451 537 732 205 403 301 780 314 1233 11 376 -39
705 -158 1045 -363 1041 -1298 1792 -2392 1920 -167 19 -415 26 -552 15z m505
-189 c41 -6 99 -13 129 -16 65 -6 260 -49 351 -77 193 -59 498 -197 669 -303
179 -111 278 -192 482 -395 284 -282 451 -538 613 -940 120 -296 178 -626 178
-1005 0 -205 -10 -300 -53 -504 -98 -464 -253 -793 -552 -1176 -284 -364 -804
-731 -1212 -856 l-59 -18 -127 52 -126 52 5 37 c4 30 0 41 -23 62 -14 13 -40
28 -56 31 -38 9 -89 60 -89 90 0 13 -4 26 -10 30 -11 7 -50 -29 -50 -47 0 -18
-31 -48 -51 -48 -10 0 -34 14 -52 30 -49 43 -61 40 -54 -15 11 -73 12 -73
-121 -53 -152 24 -392 40 -461 32 l-54 -7 6 62 c3 34 1 64 -4 67 -5 3 -25 -8
-45 -25 -36 -32 -75 -40 -94 -19 -6 7 -20 28 -30 45 -24 40 -36 42 -45 6 -10
-40 -43 -72 -102 -98 -56 -25 -78 -53 -70 -92 4 -20 -3 -27 -43 -48 -26 -13
-68 -40 -93 -59 l-46 -35 -113 50 c-62 27 -147 69 -188 91 -41 23 -95 52 -120
66 -155 85 -335 231 -528 427 -228 232 -346 394 -477 655 -228 455 -319 868
-302 1365 9 244 44 438 129 715 91 298 220 544 436 830 305 404 791 752 1267
909 177 58 422 115 555 130 52 6 111 13 130 15 58 7 420 -3 500 -13z m-41
-5278 c18 -15 24 -38 36 -128 22 -167 24 -160 -36 -173 -68 -16 -66 -17 -72
29 -3 23 -11 46 -19 50 -25 16 -85 10 -112 -12 -20 -15 -27 -17 -31 -7 -3 7
-11 32 -20 56 l-15 43 43 74 c46 81 46 81 148 84 41 1 63 -4 78 -16z m-149
-348 c0 -124 -5 -133 -47 -93 -20 19 -23 31 -23 93 0 77 17 115 51 115 18 0
19 -8 19 -115z m197 8 c-3 -10 -5 -4 -5 12 0 17 2 24 5 18 2 -7 2 -21 0 -30z
m-1189 20 c-10 -2 -26 -2 -35 0 -10 3 -2 5 17 5 19 0 27 -2 18 -5z m-181 -29
c-3 -3 -12 -4 -19 -1 -8 3 -5 6 6 6 11 1 17 -2 13 -5z"/>
<path d="M4625 6909 c-100 -10 -234 -52 -301 -95 -60 -37 -116 -100 -162 -182
-28 -50 -33 -54 -38 -34 -9 31 -24 28 -25 -5 -1 -16 -1 -31 0 -35 0 -5 -12 -8
-28 -8 -32 0 -91 -19 -91 -29 0 -4 17 -5 38 -3 l37 4 -42 -41 c-64 -62 -110
-137 -140 -226 -25 -72 -27 -93 -27 -220 1 -159 21 -253 90 -428 l39 -97 7
112 c14 206 43 319 100 383 32 38 86 60 126 52 21 -4 33 3 64 38 121 138 338
94 613 -124 148 -117 311 -188 470 -205 33 -4 77 -9 98 -12 l37 -6 0 -61 c0
-72 16 -182 31 -209 8 -15 12 -16 23 -5 35 35 110 231 132 345 18 96 18 222
-1 313 -18 85 -76 213 -142 312 -103 155 -324 341 -484 409 -129 54 -266 72
-424 57z m149 -449 c73 -18 265 -109 286 -135 6 -7 -29 7 -77 31 -218 109
-463 112 -599 9 -18 -14 -34 -21 -34 -16 0 18 110 94 163 112 69 24 166 24
261 -1z"/>
<path d="M4282 5544 c-46 -32 -17 -114 40 -114 26 0 58 36 58 65 0 29 -32 65
-58 65 -10 0 -28 -7 -40 -16z m46 -21 c5 -17 -26 -29 -40 -15 -6 6 -7 15 -3
22 9 14 37 9 43 -7z"/>
<path d="M5090 5540 c-45 -45 -6 -121 55 -106 52 13 59 92 10 114 -35 16 -42
15 -65 -8z m48 -17 c5 -17 -26 -29 -40 -15 -6 6 -7 15 -3 22 9 14 37 9 43 -7z"/>
<path d="M4036 4910 c3 -69 9 -150 13 -180 5 -30 5 -80 1 -110 -4 -30 -8 -43
-9 -27 -2 38 -11 34 -47 -21 -46 -68 -68 -114 -113 -232 -66 -172 -91 -306
-91 -493 0 -137 39 -236 198 -504 50 -86 72 -110 72 -81 0 15 49 78 61 78 5 0
9 -45 10 -102 0 -57 4 -152 9 -213 5 -60 12 -163 16 -229 l7 -119 53 -24 c74
-34 180 -54 227 -44 67 16 80 30 93 111 15 86 69 202 114 245 l32 30 35 -40
c63 -73 111 -156 139 -243 27 -83 29 -85 73 -105 69 -30 214 -28 284 4 15 7
27 16 27 20 0 5 9 80 19 166 36 291 35 270 13 275 -13 4 -23 20 -31 53 -17 68
-7 117 28 138 l29 17 42 -55 c23 -30 45 -55 49 -55 12 0 168 244 210 327 118
236 120 400 11 749 -37 116 -68 185 -114 254 -34 51 -37 59 -31 110 16 154 16
163 0 150 -8 -7 -15 -9 -15 -4 0 12 18 178 25 229 5 39 5 39 -18 -16 -84 -195
-231 -319 -435 -365 -66 -15 -76 -21 -110 -62 -69 -84 -172 -100 -207 -31 -22
41 -19 57 18 93 l32 31 -87 0 -87 0 22 -23 c27 -29 29 -89 2 -108 -60 -44
-179 13 -254 123 -14 20 -46 43 -91 64 -113 52 -169 125 -212 279 l-18 65 6
-125z m567 -910 c21 -25 23 -70 2 -70 -12 0 -15 -14 -15 -69 0 -49 5 -74 15
-85 8 -8 15 -26 15 -40 0 -25 -1 -26 -71 -26 -80 0 -99 11 -99 59 0 21 5 31
15 31 12 0 15 15 15 75 0 60 -3 75 -15 75 -10 0 -15 11 -15 35 l0 35 68 0 c55
0 71 -4 85 -20z m195 4 c20 -14 24 -14 44 0 58 41 148 -5 148 -75 0 -47 -41
-110 -105 -159 -65 -50 -71 -49 -151 23 -58 52 -90 113 -80 152 16 65 92 96
144 59z m-739 -179 c7 -71 14 -166 17 -210 l5 -80 -31 80 c-17 44 -42 104 -56
133 l-24 53 37 78 c21 43 39 77 40 77 0 -1 6 -59 12 -131z m1391 -11 l32 -60
-39 -79 c-22 -44 -57 -127 -77 -185 -66 -182 -66 -176 -20 148 13 95 27 207
31 248 l6 76 17 -44 c9 -25 32 -71 50 -104z m-1040 -159 c11 -13 15 -14 29 -2
11 10 42 14 94 14 87 1 103 -11 68 -48 -14 -15 -19 -30 -14 -46 5 -22 3 -24
-23 -21 -24 2 -29 8 -29 29 0 30 -23 62 -37 53 -6 -4 -7 -23 -4 -46 6 -38 6
-39 -21 -36 -21 2 -28 8 -27 23 0 13 -6 21 -18 21 -13 0 -16 -6 -11 -24 5 -21
3 -23 -23 -20 -28 3 -29 5 -29 61 -1 47 2 57 16 57 9 0 22 -7 29 -15z m320 4
c0 -8 4 -8 13 -1 6 5 37 9 67 8 53 -1 55 -2 78 -44 28 -50 47 -46 38 9 -8 47
6 51 47 12 27 -25 28 -26 18 -5 -10 19 -9 23 5 29 32 12 49 -11 46 -58 -5 -58
-16 -68 -46 -40 -23 22 -24 22 -19 3 5 -19 0 -21 -52 -21 -39 0 -58 5 -62 15
-6 17 -24 19 -20 2 3 -15 -33 -22 -51 -10 -10 7 -8 17 9 47 16 27 18 37 8 33
-8 -2 -23 -23 -33 -46 -25 -54 -44 -51 -73 8 -28 59 -28 70 2 70 14 0 25 -5
25 -11z"/>
<path d="M4750 4969 c-36 -5 -102 -6 -146 -3 -92 7 -106 2 -171 -57 -49 -45
-75 -53 -148 -47 -38 3 -64 12 -89 32 -20 15 -36 24 -36 21 0 -3 11 -27 25
-54 54 -108 166 -168 292 -158 72 5 163 45 186 81 l16 24 44 -42 c62 -60 130
-80 255 -74 110 5 171 29 228 90 32 33 79 116 71 124 -2 3 -20 -4 -38 -15 -48
-28 -119 -42 -157 -31 -18 4 -53 26 -79 48 -89 74 -111 79 -253 61z"/>
<path d="M5172 2470 c0 -19 2 -27 5 -17 2 9 2 25 0 35 -3 9 -5 1 -5 -18z"/>
<path d="M1720 7434 c0 -4 20 -28 44 -54 24 -26 51 -60 59 -77 15 -28 15 -32
-9 -66 l-24 -36 42 -22 c24 -12 63 -33 87 -47 38 -22 43 -23 40 -7 -2 10 -30
34 -62 52 l-57 34 26 22 26 23 -25 51 c-33 63 -147 162 -147 127z"/>
<path d="M7969 7266 c-63 -76 -80 -80 -146 -36 l-44 30 -72 -31 c-40 -18 -148
-71 -242 -120 -93 -48 -200 -99 -237 -113 -38 -14 -117 -51 -178 -81 -60 -30
-116 -55 -124 -55 -15 0 -147 102 -180 138 -24 28 -36 28 -36 0 0 -24 123
-145 176 -174 l32 -17 125 61 c69 34 129 62 134 62 4 0 137 63 295 141 200 99
292 139 306 135 11 -4 37 -20 57 -36 21 -17 47 -30 57 -30 22 0 108 87 135
137 12 23 14 36 7 43 -8 8 -27 -8 -65 -54z"/>
<path d="M2360 7147 c0 -18 109 -285 136 -333 47 -84 42 -101 -47 -185 -43
-41 -65 -69 -57 -71 26 -9 188 129 188 160 0 8 -16 44 -35 81 -19 36 -58 125
-85 197 -40 104 -55 133 -75 142 -14 6 -25 10 -25 9z"/>
<path d="M8195 6982 c-87 -52 -99 -72 -70 -116 28 -42 15 -53 -77 -64 -86 -11
-355 -30 -492 -34 l-80 -3 -29 43 c-16 24 -35 46 -43 49 -7 2 -32 -9 -56 -25
-24 -16 -62 -39 -86 -51 -50 -25 -61 -45 -42 -75 8 -11 48 -86 90 -166 113
-213 149 -270 168 -270 9 0 51 19 92 43 77 43 96 71 70 102 -19 22 4 52 47 60
45 8 42 12 129 -154 33 -64 69 -130 79 -148 17 -28 18 -34 5 -58 -8 -15 -25
-32 -37 -38 -19 -8 -28 -6 -46 11 -13 12 -31 22 -41 22 -25 0 -166 -80 -166
-93 0 -7 18 -43 38 -82 21 -38 73 -135 116 -215 42 -80 84 -152 92 -160 13
-13 25 -10 101 30 47 25 92 55 100 67 13 20 12 26 -8 63 l-23 41 23 44 c13 25
58 86 100 137 131 159 186 231 241 313 29 44 84 121 122 172 37 50 68 99 68
109 0 9 -29 68 -65 129 -36 62 -82 147 -102 191 -62 129 -92 174 -116 174 -12
-1 -58 -22 -102 -48z m35 -227 c-7 -8 -17 -15 -22 -15 -6 0 -5 7 2 15 7 8 17
15 22 15 6 0 5 -7 -2 -15z m135 -25 c3 -5 3 -15 -1 -21 -6 -11 -23 6 -24 24 0
10 18 9 25 -3z m-397 -30 c-7 -11 -17 -20 -22 -20 -5 0 -1 9 9 20 10 11 20 20
22 20 2 0 -2 -9 -9 -20z m222 10 c0 -5 -7 -10 -16 -10 -8 0 -12 5 -9 10 3 6
10 10 16 10 5 0 9 -4 9 -10z m-354 -16 c-4 -10 0 -18 13 -21 11 -3 17 -11 15
-18 -3 -7 2 -19 10 -28 19 -19 21 -31 4 -20 -7 4 -17 8 -23 9 -43 5 -76 34
-40 34 8 0 15 6 15 14 0 8 -7 16 -15 20 -22 8 -18 26 6 26 15 0 19 -4 15 -16z
m-186 -4 c0 -5 -9 -9 -20 -7 -31 5 -36 17 -7 17 15 0 27 -4 27 -10z m-90 -10
c0 -5 -4 -10 -10 -10 -5 0 -10 5 -10 10 0 6 5 10 10 10 6 0 10 -4 10 -10z
m240 -9 c0 -9 -4 -23 -9 -30 -8 -12 -11 -9 -16 11 -4 16 -12 25 -20 22 -7 -3
-16 -1 -19 5 -4 7 6 10 29 9 25 -1 35 -6 35 -17z m170 -17 c-15 -17 -30 -18
-30 -1 0 7 9 13 21 14 17 2 18 -1 9 -13z m-260 -4 c0 -5 -2 -10 -4 -10 -3 0
-8 5 -11 10 -3 6 -1 10 4 10 6 0 11 -4 11 -10z m-140 -10 c0 -5 -4 -10 -10
-10 -5 0 -10 5 -10 10 0 6 5 10 10 10 6 0 10 -4 10 -10z m40 6 c0 -3 -4 -8
-10 -11 -5 -3 -10 -1 -10 4 0 6 5 11 10 11 6 0 10 -2 10 -4z m158 -21 c0 -14
-6 -25 -14 -25 -9 0 -13 10 -12 25 1 14 8 25 14 25 6 0 12 -11 12 -25z m67
-15 c3 -5 -1 -10 -9 -10 -9 0 -16 5 -16 10 0 6 4 10 9 10 6 0 13 -4 16 -10z
m490 -10 c-3 -5 -10 -10 -16 -10 -5 0 -9 5 -9 10 0 6 7 10 16 10 8 0 12 -4 9
-10z m-542 -20 c-3 -12 -8 -19 -11 -16 -5 6 5 36 12 36 2 0 2 -9 -1 -20z m82
10 c-3 -5 -11 -10 -16 -10 -6 0 -7 5 -4 10 3 6 11 10 16 10 6 0 7 -4 4 -10z
m-105 -24 c0 -11 -19 -15 -25 -6 -3 5 1 10 9 10 9 0 16 -2 16 -4z m75 -16 c3
-5 1 -10 -4 -10 -6 0 -11 5 -11 10 0 6 2 10 4 10 3 0 8 -4 11 -10z m383 -12
c20 -20 14 -35 -49 -107 -79 -93 -94 -93 -139 -5 -45 85 -39 96 61 106 41 5
78 10 84 12 18 8 31 6 43 -6z m-328 -14 c0 -2 -7 -4 -15 -4 -8 0 -15 4 -15 10
0 5 7 7 15 4 8 -4 15 -8 15 -10z m40 -95 c0 -6 -4 -7 -10 -4 -5 3 -10 11 -10
16 0 6 5 7 10 4 6 -3 10 -11 10 -16z m340 -69 c0 -5 -4 -10 -10 -10 -5 0 -10
5 -10 10 0 6 5 10 10 10 6 0 10 -4 10 -10z m-75 -30 c3 -5 1 -10 -4 -10 -6 0
-11 5 -11 10 0 6 2 10 4 10 3 0 8 -4 11 -10z m-25 -20 c0 -5 -4 -10 -10 -10
-5 0 -10 5 -10 10 0 6 5 10 10 10 6 0 10 -4 10 -10z m67 -17 c4 -10 11 -21 17
-25 19 -12 -2 -20 -23 -8 -12 6 -21 20 -21 30 0 25 18 26 27 3z m-52 -13 c-10
-11 -20 -18 -23 -15 -7 6 18 35 31 35 5 0 2 -9 -8 -20z m-44 -35 c5 4 9 1 9
-5 0 -7 -8 -9 -22 -4 -30 9 -31 10 -23 25 6 8 10 7 17 -5 5 -9 13 -14 19 -11z
m69 11 c0 -2 -7 -9 -15 -16 -13 -11 -14 -10 -9 4 5 14 24 23 24 12z m-105 -28
c14 -6 25 -17 25 -25 0 -17 17 -17 23 0 3 6 6 3 6 -9 1 -11 7 -29 15 -40 13
-17 18 -17 36 -6 26 16 38 9 21 -12 -8 -9 -28 -14 -52 -13 -33 1 -39 4 -36 19
4 13 -3 19 -29 24 -19 3 -34 10 -34 16 0 5 6 8 13 6 7 -2 12 1 12 7 0 5 -7 10
-15 10 -8 0 -16 8 -18 18 -4 20 -1 21 33 5z m129 -13 c-4 -8 -17 -15 -31 -15
-22 0 -24 2 -13 15 7 8 21 15 31 15 12 0 16 -5 13 -15z m-17 -52 c-9 -9 -20
-12 -28 -8 -9 6 -8 11 6 21 23 17 42 6 22 -13z m-143 -9 c13 -5 13 -8 1 -20
-7 -8 -21 -14 -29 -14 -19 0 -21 26 -3 33 6 3 13 6 14 6 1 1 8 -2 17 -5z m76
-54 c0 -5 -5 -10 -11 -10 -5 0 -7 5 -4 10 3 6 8 10 11 10 2 0 4 -4 4 -10z
m-95 -40 c28 -31 10 -36 -22 -6 -20 19 -23 26 -12 26 9 0 24 -9 34 -20z m-30
-40 c-3 -5 -11 -10 -16 -10 -6 0 -7 5 -4 10 3 6 11 10 16 10 6 0 7 -4 4 -10z
m75 0 c0 -5 -4 -10 -10 -10 -5 0 -10 5 -10 10 0 6 5 10 10 10 6 0 10 -4 10
-10z"/>
<path d="M8098 6493 c-49 -4 -54 -8 -39 -31 11 -18 74 -6 97 19 13 14 14 19 3
17 -8 -1 -35 -3 -61 -5z"/>
<path d="M7200 6605 c-9 -11 0 -35 46 -122 115 -218 175 -321 191 -327 22 -9
180 79 188 105 11 34 -1 33 -70 -5 -36 -20 -74 -36 -85 -36 -30 0 -98 104
-195 298 -24 50 -49 93 -54 96 -5 3 -14 -1 -21 -9z"/>
<path d="M7690 6411 c6 -12 9 -25 6 -30 -3 -4 14 -42 38 -83 23 -41 48 -89 55
-105 18 -44 58 -80 72 -66 8 8 5 20 -12 45 -13 18 -49 82 -79 143 -36 70 -62
111 -74 113 -15 3 -16 1 -6 -17z"/>
<path d="M8538 6392 c-8 -9 -50 -69 -93 -132 -80 -117 -132 -185 -265 -346
-92 -112 -112 -145 -100 -164 5 -8 10 -12 12 -10 2 3 35 43 74 90 107 130 165
207 231 305 33 50 86 123 117 164 31 41 56 80 56 87 0 21 -16 25 -32 6z"/>
<path d="M866 6125 c-4 -10 6 -17 37 -25 87 -21 122 -32 134 -41 7 -7 9 -30 6
-69 l-6 -60 34 0 c19 0 57 -7 84 -15 28 -9 82 -20 120 -26 39 -6 124 -24 190
-39 66 -15 143 -31 170 -35 51 -7 206 -48 226 -61 14 -8 5 -115 -16 -194 -8
-30 -13 -55 -12 -56 1 -2 12 5 24 14 26 20 56 153 51 227 -3 46 -5 49 -43 62
-22 8 -78 21 -125 29 -47 8 -143 28 -215 44 -207 45 -286 61 -350 71 -94 14
-90 11 -90 81 l0 63 -85 22 c-102 26 -126 28 -134 8z"/>
<path d="M757 6029 c-8 -30 -27 -110 -42 -179 -14 -69 -33 -155 -42 -191 -25
-110 -25 -110 101 -142 60 -15 115 -26 121 -23 7 2 15 28 19 56 5 38 11 50 21
46 39 -15 109 -29 195 -40 83 -10 95 -14 95 -31 0 -14 -21 -29 -75 -56 -187
-92 -412 -201 -487 -234 l-81 -37 -21 -77 c-32 -119 -61 -258 -61 -290 0 -35
20 -44 141 -62 76 -12 82 -12 95 6 8 10 14 30 14 44 1 64 5 64 320 1 332 -66
313 -57 291 -139 -15 -55 -4 -66 68 -77 25 -4 53 -10 61 -14 8 -4 32 -10 53
-14 36 -7 38 -5 51 26 7 18 25 101 40 183 15 83 36 184 47 226 25 100 25 106
-13 117 -35 11 -190 37 -198 34 -3 -1 -12 -22 -20 -46 -8 -25 -18 -48 -22 -51
-3 -4 -30 0 -60 8 -29 8 -97 22 -150 32 -63 11 -98 22 -102 31 -3 9 2 17 12
21 9 3 60 26 112 51 52 24 192 91 310 147 l215 102 24 69 c15 42 24 94 25 134
l1 65 -55 18 c-30 9 -86 22 -125 28 -38 6 -124 23 -190 39 -66 16 -142 32
-170 35 -27 4 -83 16 -124 26 -41 10 -85 19 -97 19 -13 0 -34 4 -47 9 -23 9
-24 11 -14 66 13 67 13 67 -88 89 -147 33 -132 35 -148 -25z m303 -219 c0 -5
-10 -10 -22 -9 -22 0 -22 1 -3 9 11 5 21 9 23 9 1 1 2 -3 2 -9z m-80 -30 c0
-5 -4 -10 -10 -10 -5 0 -10 5 -10 10 0 6 5 10 10 10 6 0 10 -4 10 -10z m430
-31 c0 -5 -4 -9 -10 -9 -5 0 -10 7 -10 16 0 8 5 12 10 9 6 -3 10 -10 10 -16z
m-70 -15 c0 -14 -3 -14 -15 -4 -8 7 -15 14 -15 16 0 2 7 4 15 4 8 0 15 -7 15
-16z m126 -19 c3 -14 11 -25 18 -25 6 0 0 -10 -14 -21 -24 -20 -24 -20 -2 -14
29 8 28 1 -3 -19 -19 -13 -23 -13 -19 -2 3 8 1 17 -5 21 -7 4 -5 14 5 30 15
23 15 25 0 31 -20 8 -21 24 -1 24 8 0 17 -11 21 -25z m-396 11 c0 -3 -4 -8
-10 -11 -5 -3 -10 -1 -10 4 0 6 5 11 10 11 6 0 10 -2 10 -4z m325 -16 c3 -5
-1 -10 -9 -10 -9 0 -16 5 -16 10 0 6 4 10 9 10 6 0 13 -4 16 -10z m177 -17 c9
-8 25 -16 35 -17 14 -2 18 -12 18 -40 1 -42 -4 -49 -25 -36 -11 7 -12 11 0 24
7 9 10 20 6 23 -4 4 -11 1 -15 -6 -7 -11 -11 -10 -18 4 -6 10 -13 13 -17 7 -3
-5 1 -15 9 -22 11 -9 12 -17 2 -37 -8 -18 -8 -29 1 -43 12 -20 7 -21 -75 -4
-28 5 -30 24 -3 24 11 0 20 -5 20 -11 0 -21 24 -2 31 25 6 21 4 26 -5 23 -25
-10 -35 13 -21 47 7 17 11 36 8 42 -5 16 29 14 49 -3z m-322 -9 c0 -3 -7 -12
-15 -20 -16 -17 -18 -14 -9 10 6 15 24 23 24 10z m-60 -14 c-20 -13 -33 -13
-25 0 3 6 14 10 23 10 15 0 15 -2 2 -10z m230 0 c0 -5 -4 -10 -10 -10 -5 0
-10 5 -10 10 0 6 5 10 10 10 6 0 10 -4 10 -10z m-40 -19 c0 -5 -7 -14 -15 -21
-12 -10 -15 -10 -15 2 0 8 3 18 7 21 9 10 23 9 23 -2z m285 -21 c3 -5 1 -10
-4 -10 -6 0 -11 5 -11 10 0 6 2 10 4 10 3 0 8 -4 11 -10z m-385 -30 c0 -5 -4
-10 -9 -10 -6 0 -13 5 -16 10 -3 6 1 10 9 10 9 0 16 -4 16 -10z m90 0 c12 -7
10 -9 -8 -7 -12 0 -22 5 -22 9 0 11 12 10 30 -2z m283 -20 c-3 -11 -9 -20 -13
-20 -5 0 -6 9 -3 20 3 11 9 20 13 20 5 0 6 -9 3 -20z m32 0 c3 -5 1 -10 -4
-10 -6 0 -11 5 -11 10 0 6 2 10 4 10 3 0 8 -4 11 -10z m-285 -9 c0 -12 -20
-25 -27 -18 -7 7 6 27 18 27 5 0 9 -4 9 -9z m211 -6 c5 4 6 -1 3 -9 -7 -18
-13 -19 -34 -6 -13 9 -13 11 0 20 10 6 16 6 18 0 2 -6 8 -8 13 -5z m-171 -5
c0 -5 -4 -10 -10 -10 -5 0 -10 5 -10 10 0 6 5 10 10 10 6 0 10 -4 10 -10z
m100 -50 c0 -5 -5 -10 -11 -10 -5 0 -7 5 -4 10 3 6 8 10 11 10 2 0 4 -4 4 -10z
m-28 -62 c-7 -7 -12 -8 -12 -2 0 14 12 26 19 19 2 -3 -1 -11 -7 -17z m-197
-48 c3 -5 1 -10 -4 -10 -6 0 -11 5 -11 10 0 6 2 10 4 10 3 0 8 -4 11 -10z
m105 -8 c0 -13 -12 -22 -22 -16 -10 6 -1 24 13 24 5 0 9 -4 9 -8z m-360 -302
c0 -5 -2 -10 -4 -10 -3 0 -8 5 -11 10 -3 6 -1 10 4 10 6 0 11 -4 11 -10z m90
-40 c0 -11 -4 -20 -9 -20 -11 0 -22 26 -14 34 12 12 23 5 23 -14z m85 10 c3
-5 -1 -10 -9 -10 -9 0 -16 5 -16 10 0 6 4 10 9 10 6 0 13 -4 16 -10z m-230
-10 c3 -5 1 -10 -4 -10 -6 0 -11 5 -11 10 0 6 2 10 4 10 3 0 8 -4 11 -10z
m175 -60 c0 -5 -4 -10 -10 -10 -5 0 -10 5 -10 10 0 6 5 10 10 10 6 0 10 -4 10
-10z m290 -65 c0 -8 -4 -15 -9 -15 -13 0 -22 16 -14 24 11 11 23 6 23 -9z
m110 5 c0 -5 -2 -10 -4 -10 -3 0 -8 5 -11 10 -3 6 -1 10 4 10 6 0 11 -4 11
-10z m-342 -12 c-7 -19 -38 -22 -38 -4 0 10 9 16 21 16 12 0 19 -5 17 -12z
m172 -27 c0 -9 -24 -21 -43 -21 -6 0 -2 7 9 15 22 17 34 19 34 6z"/>
<path d="M7603 5874 c-6 -17 15 -63 140 -294 51 -95 79 -136 93 -138 31 -4
188 91 192 117 3 21 0 20 -75 -17 -107 -54 -121 -47 -193 98 -52 106 -134 250
-143 250 -4 0 -10 -7 -14 -16z"/>
<path d="M8835 5423 c-43 -6 -50 -18 -50 -76 l0 -52 -50 -7 c-104 -14 -549
-27 -562 -16 -8 6 -13 32 -13 64 0 63 1 63 -128 63 -123 -1 -127 -4 -119 -124
4 -49 10 -168 13 -263 5 -129 11 -175 20 -179 7 -3 62 -1 121 4 l108 8 5 55 5
55 40 -1 c22 -1 91 3 154 8 145 12 155 5 82 -59 -29 -26 -88 -74 -131 -107
-43 -34 -146 -116 -228 -183 l-150 -123 -7 -65 c-7 -59 -2 -123 12 -182 8 -33
36 -35 333 -23 146 6 324 12 396 15 l132 4 6 -59 c5 -45 11 -60 26 -65 22 -7
196 1 210 10 11 7 12 201 1 398 -5 96 -10 130 -21 137 -8 6 -66 10 -127 10
l-113 0 0 -59 0 -59 -122 -5 c-68 -3 -135 -9 -150 -13 -21 -5 -29 -2 -34 11
-9 21 58 91 141 148 33 23 92 71 130 107 39 36 88 79 110 95 22 16 68 52 103
79 l62 49 -1 171 c-1 94 -4 185 -8 201 l-6 30 -80 1 c-44 1 -93 -1 -110 -3z
m-650 -293 c-10 -11 -20 -18 -23 -15 -3 3 3 14 13 25 10 11 20 18 23 15 3 -3
-3 -14 -13 -25z m185 15 c0 -8 -9 -15 -20 -15 -13 0 -18 5 -14 15 4 8 12 15
20 15 8 0 14 -7 14 -15z m55 -54 c3 -5 1 -12 -5 -16 -5 -3 -10 1 -10 9 0 18 6
21 15 7z m-285 -11 c0 -5 -7 -10 -15 -10 -8 0 -15 5 -15 10 0 6 7 10 15 10 8
0 15 -4 15 -10z m470 -10 c0 -5 -4 -10 -10 -10 -5 0 -10 5 -10 10 0 6 5 10 10
10 6 0 10 -4 10 -10z m-135 -30 c3 -5 3 -15 -1 -21 -6 -11 -23 6 -24 24 0 10
18 9 25 -3z m-80 -30 c3 -5 -3 -10 -15 -10 -12 0 -18 5 -15 10 3 6 10 10 15
10 5 0 12 -4 15 -10z m-5 -350 c0 -5 -4 -10 -10 -10 -5 0 -10 5 -10 10 0 6 5
10 10 10 6 0 10 -4 10 -10z m-99 -23 c-13 -13 -26 -3 -16 12 3 6 11 8 17 5 6
-4 6 -10 -1 -17z m69 -31 c0 -3 -4 -8 -10 -11 -5 -3 -10 -1 -10 4 0 6 5 11 10
11 6 0 10 -2 10 -4z m-159 -69 c-8 -8 -11 -7 -11 4 0 20 13 34 18 19 3 -7 -1
-17 -7 -23z m-1 -37 c0 -5 -5 -10 -11 -10 -5 0 -7 5 -4 10 3 6 8 10 11 10 2 0
4 -4 4 -10z m163 -29 c3 -14 0 -17 -14 -14 -20 5 -24 15 -12 26 11 12 21 8 26
-12z m-43 5 c0 -11 -19 -15 -25 -6 -3 5 1 10 9 10 9 0 16 -2 16 -4z m170 -12
c0 -2 -9 -4 -21 -4 -11 0 -18 4 -14 10 5 8 35 3 35 -6z m-225 -7 c-6 -15 -45
-20 -45 -6 0 6 -4 7 -10 4 -5 -3 -10 -19 -10 -34 0 -22 4 -27 22 -27 21 1 23
-4 23 -45 1 -46 0 -47 -30 -43 -16 3 -41 5 -55 7 -20 2 -25 7 -25 30 1 15 -3
27 -7 27 -4 0 -8 5 -8 10 0 6 9 10 20 10 17 0 19 -5 14 -25 -4 -16 -2 -25 6
-25 6 0 9 4 5 9 -3 5 -1 12 4 16 5 3 14 -3 20 -12 9 -16 10 -16 11 -2 0 9 -7
19 -15 23 -10 4 -13 14 -9 35 5 23 2 32 -10 37 -31 12 -15 20 44 22 46 2 58
-1 55 -11z m135 -7 c0 -5 -5 -10 -11 -10 -5 0 -7 5 -4 10 3 6 8 10 11 10 2 0
4 -4 4 -10z m-241 -9 c9 -6 10 -11 2 -15 -13 -8 -31 1 -31 15 0 11 11 11 29 0z
m372 -24 c-6 -8 -8 -17 -4 -20 3 -4 -1 -7 -10 -7 -15 0 -15 3 -5 20 7 11 17
20 22 20 4 0 3 -6 -3 -13z m49 3 c-8 -5 -19 -10 -25 -10 -5 0 -3 5 5 10 8 5
20 10 25 10 6 0 3 -5 -5 -10z m-470 -25 c0 -14 -4 -25 -10 -25 -5 0 -10 11
-10 25 0 14 5 25 10 25 6 0 10 -11 10 -25z m290 16 c0 -12 -20 -25 -27 -18 -7
7 6 27 18 27 5 0 9 -4 9 -9z m310 -11 c0 -5 -4 -10 -10 -10 -5 0 -10 5 -10 10
0 6 5 10 10 10 6 0 10 -4 10 -10z m-630 -10 c0 -5 -4 -10 -9 -10 -6 0 -13 5
-16 10 -3 6 1 10 9 10 9 0 16 -4 16 -10z m215 -19 c-3 -6 -11 -11 -17 -11 -6
0 -6 6 2 15 14 17 26 13 15 -4z m65 -2 c0 -5 -9 -9 -19 -9 -25 0 -37 -31 -17
-46 19 -14 21 -24 4 -24 -7 0 -21 12 -31 25 -16 22 -16 26 -2 42 16 19 65 28
65 12z m450 -5 c0 -8 -4 -12 -10 -9 -5 3 -10 10 -10 16 0 5 5 9 10 9 6 0 10
-7 10 -16z m-414 -16 c-3 -13 -5 -25 -5 -27 -1 -3 -6 0 -12 6 -8 8 -8 15 2 27
18 20 20 20 15 -6z m-286 2 c0 -5 -4 -10 -10 -10 -5 0 -10 5 -10 10 0 6 5 10
10 10 6 0 10 -4 10 -10z m350 -30 c0 -5 -7 -10 -15 -10 -8 0 -15 5 -15 10 0 6
7 10 15 10 8 0 15 -4 15 -10z m300 6 c0 -2 -9 -6 -20 -9 -11 -3 -18 -1 -14 4
5 9 34 13 34 5z m-370 -36 c0 -5 -4 -10 -10 -10 -5 0 -10 5 -10 10 0 6 5 10
10 10 6 0 10 -4 10 -10z"/>
<path d="M7840 5295 c-10 -12 -11 -49 -6 -158 4 -78 10 -196 12 -262 3 -66 8
-123 13 -128 4 -4 58 -5 119 -1 100 6 112 9 112 26 0 16 -9 18 -89 18 -64 0
-92 4 -100 14 -7 8 -13 65 -16 143 -6 207 -17 363 -25 363 -4 0 -13 -7 -20
-15z"/>
<path d="M1560 5210 c0 -11 3 -20 8 -20 31 0 137 -23 152 -33 31 -19 32 -33 6
-146 -14 -58 -34 -155 -46 -216 -11 -60 -23 -120 -25 -132 -6 -26 15 -32 33
-10 6 7 24 84 41 172 18 88 40 197 51 243 24 101 25 109 2 121 -15 8 -185 41
-212 41 -6 0 -10 -9 -10 -20z"/>
<path d="M1240 5161 c-20 -13 -15 -15 60 -29 36 -6 75 -14 88 -18 18 -5 22 -2
22 14 0 22 -14 27 -100 37 -30 3 -62 1 -70 -4z"/>
<path d="M8288 4913 c-61 -4 -68 -6 -68 -25 0 -14 5 -18 16 -14 9 3 41 6 72 6
41 0 64 6 82 20 l25 20 -30 -2 c-16 -1 -60 -3 -97 -5z"/>
<path d="M1535 4528 c-83 -21 -105 -32 -105 -53 0 -9 20 -7 81 7 125 30 118
40 195 -284 30 -129 36 -144 53 -134 17 11 14 44 -15 152 -14 55 -35 141 -45
191 -26 126 -34 143 -61 142 -13 0 -59 -9 -103 -21z"/>
<path d="M1470 4428 c-98 -25 -113 -40 -98 -94 6 -23 8 -48 5 -57 -7 -17 -83
-78 -282 -225 -66 -49 -172 -133 -235 -188 -63 -55 -137 -115 -163 -134 -49
-35 -49 -35 -43 -81 4 -26 17 -83 31 -128 13 -45 31 -121 40 -169 23 -123 46
-205 62 -218 14 -12 68 -2 176 33 l49 15 -4 57 -3 56 45 -3 c67 -4 511 -88
590 -111 18 -6 28 -19 37 -51 20 -70 25 -71 138 -39 55 16 103 33 107 37 4 4
1 32 -7 62 -9 30 -26 107 -40 170 -29 137 -70 279 -83 292 -9 9 -82 -6 -169
-33 -30 -9 -33 -15 -33 -48 0 -20 -5 -42 -12 -49 -16 -16 -73 -15 -86 1 -11
14 -34 98 -55 202 -8 39 -21 92 -30 119 -16 48 -16 48 10 72 35 32 63 30 93
-6 l25 -30 80 16 c44 10 86 23 94 30 14 12 4 70 -43 254 -7 30 -24 98 -36 150
-12 52 -27 101 -32 108 -14 16 -38 14 -128 -10z m-200 -372 c0 -11 -19 -15
-25 -6 -3 5 1 10 9 10 9 0 16 -2 16 -4z m65 -26 c-3 -5 -10 -10 -16 -10 -5 0
-9 5 -9 10 0 6 7 10 16 10 8 0 12 -4 9 -10z m-32 -25 c9 -13 13 -26 8 -29 -8
-5 -41 34 -41 49 0 12 16 3 33 -20z m-123 -40 c-11 -19 -19 -35 -17 -36 1 0
11 -2 21 -4 10 -2 26 -11 35 -20 15 -16 14 -17 -6 -11 -12 4 -24 2 -28 -4 -3
-6 3 -10 14 -10 14 0 21 -6 21 -20 0 -11 -3 -20 -8 -20 -15 0 -43 42 -38 56 7
18 1 18 -17 -1 -13 -13 -15 -10 -14 21 1 40 -17 58 -45 43 -22 -12 -24 3 -3
21 12 10 20 9 40 -4 23 -15 25 -15 37 4 22 35 29 22 8 -15z m-50 -24 c0 -12
-29 -23 -41 -15 -5 3 -7 10 -4 15 8 12 45 12 45 0z m150 -1 c16 -10 13 -15
-15 -24 -23 -6 -54 9 -42 21 5 4 12 1 17 -7 8 -13 10 -12 10 3 0 19 8 21 30 7z
m-174 -33 c8 3 14 0 14 -5 0 -13 -36 -25 -50 -17 -8 5 -7 12 2 22 7 9 14 11
16 5 2 -6 10 -8 18 -5z m-61 -39 c17 -7 25 -19 25 -35 0 -16 -5 -23 -12 -20
-7 2 -12 10 -10 17 1 7 -7 21 -19 31 -25 22 -21 24 16 7z m60 -8 c-3 -5 -11
-10 -16 -10 -6 0 -7 5 -4 10 3 6 11 10 16 10 6 0 7 -4 4 -10z m66 -10 c23 -13
25 -30 4 -30 -8 0 -15 6 -15 14 0 8 -6 17 -12 19 -7 3 -9 6 -5 6 5 1 17 -4 28
-9z m-41 -16 c0 -4 -8 -13 -17 -20 -11 -8 -13 -13 -5 -14 6 0 12 -5 12 -10 0
-6 -8 -5 -20 2 -18 11 -18 14 -3 30 16 18 33 24 33 12z m-35 -54 c3 -5 1 -10
-4 -10 -6 0 -11 5 -11 10 0 6 2 10 4 10 3 0 8 -4 11 -10z m-75 -10 c0 -5 -4
-10 -10 -10 -5 0 -10 5 -10 10 0 6 5 10 10 10 6 0 10 -4 10 -10z m170 -55 c19
-23 36 -143 23 -156 -19 -19 -201 8 -214 32 -11 21 -12 20 86 93 64 48 86 54
105 31z m190 -25 c0 -5 -5 -10 -11 -10 -5 0 -7 5 -4 10 3 6 8 10 11 10 2 0 4
-4 4 -10z m-60 -80 c0 -5 -4 -10 -10 -10 -5 0 -10 5 -10 10 0 6 5 10 10 10 6
0 10 -4 10 -10z m-420 -60 c0 -5 -4 -10 -10 -10 -5 0 -10 5 -10 10 0 6 5 10
10 10 6 0 10 -4 10 -10z m450 -51 c0 -4 -7 -6 -15 -3 -8 4 -15 10 -15 15 0 4
7 6 15 3 8 -4 15 -10 15 -15z m-480 7 c0 -3 -4 -8 -10 -11 -5 -3 -10 -1 -10 4
0 6 5 11 10 11 6 0 10 -2 10 -4z m-36 -62 c4 -9 4 -19 2 -21 -8 -8 -26 8 -26
23 0 19 16 18 24 -2z m516 -4 c0 -5 -4 -10 -10 -10 -5 0 -10 5 -10 10 0 6 5
10 10 10 6 0 10 -4 10 -10z m74 1 c3 -5 -1 -14 -8 -20 -12 -10 -13 -8 -9 8 6
23 9 25 17 12z m36 -1 c0 -5 -4 -10 -10 -10 -5 0 -10 5 -10 10 0 6 5 10 10 10
6 0 10 -4 10 -10z m-200 -10 c0 -5 -4 -10 -10 -10 -5 0 -10 -6 -10 -14 0 -9
-9 -14 -20 -13 -23 2 -27 17 -5 17 9 0 18 7 21 15 7 17 24 20 24 5z m114 -33
c3 4 6 -2 6 -11 0 -10 -6 -16 -12 -13 -7 2 -17 -2 -23 -9 -7 -9 -15 -11 -25
-4 -11 7 -12 12 -3 21 9 9 8 15 -3 26 -28 28 -14 35 20 10 18 -15 36 -23 40
-20z m-4 23 c0 -5 -4 -10 -10 -10 -5 0 -10 5 -10 10 0 6 5 10 10 10 6 0 10 -4
10 -10z m-360 -10 c0 -5 -4 -10 -10 -10 -5 0 -10 5 -10 10 0 6 5 10 10 10 6 0
10 -4 10 -10z m421 -28 c-6 -2 -9 -8 -5 -13 3 -5 0 -9 -5 -9 -14 0 -14 2 1 37
10 24 12 25 16 8 2 -10 -1 -21 -7 -23z m109 28 c0 -5 -5 -10 -11 -10 -5 0 -7
5 -4 10 3 6 8 10 11 10 2 0 4 -4 4 -10z m-590 -35 c-7 -8 -17 -15 -22 -15 -6
0 -5 7 2 15 7 8 17 15 22 15 6 0 5 -7 -2 -15z m466 -35 c8 0 14 -7 14 -15 0
-8 -7 -15 -15 -15 -8 0 -15 5 -15 10 0 6 -7 10 -15 10 -18 0 -19 14 -2 41 12
19 12 19 15 -6 2 -14 10 -25 18 -25z m-186 35 c0 -2 -10 -10 -22 -16 -21 -11
-22 -11 -9 4 13 16 31 23 31 12z m133 -40 c8 -18 -11 -31 -25 -17 -11 11 -3
32 12 32 4 0 10 -7 13 -15z m207 -5 c8 -5 11 -12 8 -16 -4 -3 -14 1 -23 10
-18 17 -9 21 15 6z m50 -10 c0 -5 -5 -10 -11 -10 -5 0 -7 5 -4 10 3 6 8 10 11
10 2 0 4 -4 4 -10z m-80 -30 c8 -5 12 -12 9 -15 -8 -8 -39 5 -39 16 0 11 11
11 30 -1z m75 -9 c3 -5 1 -12 -5 -16 -5 -3 -10 1 -10 9 0 18 6 21 15 7z"/>
<path d="M1077 3626 c-17 -13 -15 -15 25 -21 24 -3 51 -9 61 -11 18 -6 22 3 9
24 -13 19 -74 25 -95 8z"/>
<path d="M7878 4411 c-13 -19 -16 -41 -12 -120 7 -143 11 -155 65 -163 24 -4
80 -5 124 -2 44 3 141 7 215 9 74 2 210 7 301 10 l166 5 9 -57 9 -58 97 -3
c94 -3 138 6 138 28 0 6 -38 10 -87 10 -49 0 -93 4 -99 8 -7 4 -15 33 -19 65
l-8 59 -41 -6 c-69 -9 -763 -29 -790 -22 -32 8 -37 27 -45 159 -6 99 -7 101
-23 78z"/>
<path d="M1285 4296 c-16 -12 -83 -62 -148 -110 -65 -49 -162 -126 -215 -173
-53 -47 -125 -106 -159 -131 -46 -33 -63 -52 -63 -69 0 -13 2 -23 4 -23 3 0
70 55 149 123 79 67 214 172 299 234 164 119 194 146 183 162 -9 15 -16 13
-50 -13z"/>
<path d="M8095 3953 c-68 -18 -115 -98 -115 -196 0 -45 4 -54 39 -87 44 -42
87 -54 141 -40 72 19 130 91 130 161 0 44 -35 114 -69 139 -30 20 -92 32 -126
23z m0 -113 c3 -5 1 -10 -4 -10 -6 0 -11 5 -11 10 0 6 2 10 4 10 3 0 8 -4 11
-10z m-45 -131 c0 -6 -4 -7 -10 -4 -5 3 -10 11 -10 16 0 6 5 7 10 4 6 -3 10
-11 10 -16z m50 -19 c0 -5 -5 -10 -11 -10 -5 0 -7 5 -4 10 3 6 8 10 11 10 2 0
4 -4 4 -10z"/>
<path d="M1451 3887 c-8 -11 -7 -25 5 -58 8 -24 21 -78 29 -119 16 -90 36
-152 50 -157 17 -5 9 85 -14 174 -11 45 -21 88 -21 97 0 9 -8 29 -19 46 -15
25 -20 28 -30 17z"/>
<path d="M7942 3863 c-46 -66 -56 -165 -22 -213 22 -31 76 -60 112 -60 19 0
16 4 -20 26 -79 48 -97 120 -57 235 17 46 13 49 -13 12z"/>
<path d="M1734 3738 c-67 -17 -84 -25 -93 -45 -11 -24 -10 -25 11 -20 137 35
147 36 168 19 19 -16 78 -224 110 -384 11 -54 13 -57 32 -47 14 7 18 18 15 32
-2 12 -14 63 -26 112 -59 240 -83 330 -93 342 -14 17 -27 16 -124 -9z"/>
<path d="M8120 3370 c-25 -5 -79 -22 -120 -37 -64 -23 -86 -38 -160 -109 -47
-45 -101 -108 -120 -140 -46 -77 -100 -235 -107 -314 -6 -66 11 -208 26 -223
5 -5 62 6 127 25 l119 33 -3 69 c-4 79 11 151 44 217 26 52 121 144 171 165
59 25 181 12 258 -29 45 -23 112 -94 137 -146 34 -69 32 -177 -4 -253 -31 -63
-74 -118 -92 -118 -6 0 -36 16 -66 35 -30 19 -62 35 -72 35 -20 0 -46 -38
-103 -148 -32 -63 -36 -76 -24 -88 8 -7 71 -42 140 -77 l126 -64 46 17 c72 28
111 56 181 131 110 119 180 294 179 449 0 78 -29 214 -56 267 -33 62 -164 189
-234 226 -131 68 -287 99 -393 77z m100 -110 c0 -5 -2 -10 -4 -10 -3 0 -8 5
-11 10 -3 6 -1 10 4 10 6 0 11 -4 11 -10z m130 -40 c0 -5 -5 -10 -11 -10 -5 0
-7 5 -4 10 3 6 8 10 11 10 2 0 4 -4 4 -10z m-51 -55 c13 -14 20 -25 17 -25
-12 0 -56 32 -56 41 0 16 14 9 39 -16z m96 5 c3 -5 -1 -10 -10 -10 -9 0 -13 5
-10 10 3 6 8 10 10 10 2 0 7 -4 10 -10z m-465 -10 c0 -5 -4 -10 -10 -10 -5 0
-10 5 -10 10 0 6 5 10 10 10 6 0 10 -4 10 -10z m546 -55 c1 -8 -2 -15 -7 -15
-5 0 -9 10 -9 22 0 23 12 17 16 -7z m-101 -12 c-20 -14 -35 -17 -35 -7 0 12
35 32 44 27 5 -4 1 -12 -9 -20z m-505 -12 c0 -6 -4 -13 -10 -16 -5 -3 -10 1
-10 9 0 9 5 16 10 16 6 0 10 -4 10 -9z m65 -20 c-3 -6 -11 -8 -17 -5 -6 4 -5
9 3 15 16 10 23 4 14 -10z m640 9 c7 0 13 -11 13 -25 0 -30 -14 -33 -23 -5 -4
11 -15 20 -26 20 -12 0 -17 4 -14 11 4 6 14 8 22 5 8 -3 20 -6 28 -6z m-670
-30 c10 -11 15 -23 12 -27 -8 -7 -47 25 -47 39 0 14 16 9 35 -12z m775 -30 c0
-5 -5 -10 -11 -10 -5 0 -7 5 -4 10 3 6 8 10 11 10 2 0 4 -4 4 -10z m-131 -9
c10 -6 10 -10 1 -16 -7 -4 -19 0 -28 9 -14 13 -14 16 -2 16 8 0 21 -4 29 -9z
m-739 -11 c0 -5 -4 -10 -10 -10 -5 0 -10 5 -10 10 0 6 5 10 10 10 6 0 10 -4
10 -10z m90 -19 c0 -6 -6 -13 -12 -18 -15 -9 -38 -13 -38 -7 0 3 6 11 13 19
14 16 37 20 37 6z m732 -21 c5 -32 1 -35 -21 -21 -8 5 -11 16 -6 30 9 30 22
26 27 -9z m-829 -8 c-4 -16 0 -18 26 -14 19 2 31 0 31 -7 0 -6 -7 -11 -16 -11
-10 0 -14 -6 -10 -15 3 -8 1 -15 -4 -15 -6 0 -10 6 -11 13 0 10 -2 10 -6 0 -6
-17 -23 -17 -23 0 0 7 -6 22 -14 32 -12 16 -16 17 -30 6 -9 -7 -16 -19 -16
-25 0 -6 5 -4 10 4 7 11 12 12 20 4 8 -8 6 -15 -5 -24 -14 -12 -18 -11 -26 1
-15 24 -11 59 9 61 9 0 22 2 29 2 6 1 15 4 19 8 11 12 22 -1 17 -20z m877 -32
c0 -5 -4 -10 -10 -10 -5 0 -10 5 -10 10 0 6 5 10 10 10 6 0 10 -4 10 -10z
m-810 -26 c0 -8 -4 -12 -10 -9 -5 3 -10 10 -10 16 0 5 5 9 10 9 6 0 10 -7 10
-16z m-93 -36 c1 -25 -1 -28 -6 -14 -5 14 -10 16 -15 8 -11 -18 -26 -14 -26 7
0 17 10 24 41 30 3 0 6 -14 6 -31z m82 -2 c-3 -3 -16 -2 -29 1 -22 6 -22 7 -4
14 18 6 43 -5 33 -15z m-39 -24 c0 -5 -9 -19 -20 -32 -11 -12 -17 -28 -13 -34
3 -6 -5 -1 -19 12 -13 12 -28 19 -31 15 -4 -3 -7 1 -7 10 0 20 13 21 41 6 17
-9 21 -7 26 10 5 20 23 30 23 13z m870 -12 c0 -5 -4 -10 -10 -10 -5 0 -10 5
-10 10 0 6 5 10 10 10 6 0 10 -4 10 -10z m-46 -84 c-7 -28 -34 -36 -34 -11 0
8 7 15 15 15 8 0 15 8 15 17 0 9 2 14 5 11 4 -3 3 -17 -1 -32z m-844 -10 c0
-3 -4 -8 -10 -11 -5 -3 -10 -1 -10 4 0 6 5 11 10 11 6 0 10 -2 10 -4z m870 -6
c0 -5 -2 -10 -4 -10 -3 0 -8 5 -11 10 -3 6 -1 10 4 10 6 0 11 -4 11 -10z"/>
<path d="M7723 3188 c-92 -90 -122 -138 -169 -278 -26 -75 -29 -98 -28 -200 0
-134 15 -200 44 -200 28 0 30 10 14 70 -25 90 -14 254 24 362 43 123 77 182
151 260 35 37 60 68 56 68 -4 0 -46 -37 -92 -82z"/>
<path d="M1902 3062 c-40 -37 -72 -75 -72 -84 0 -10 3 -18 6 -18 3 0 37 27 76
60 38 33 74 60 81 60 16 0 122 -113 212 -225 97 -120 142 -162 156 -148 14 14
-11 53 -95 144 -34 36 -101 113 -151 172 -70 83 -95 106 -115 106 -17 0 -49
-21 -98 -67z"/>
<path d="M8220 3012 c111 -29 176 -96 205 -210 18 -69 14 -94 -31 -184 -14
-28 -20 -49 -14 -53 16 -10 29 3 62 68 27 52 32 73 32 127 -1 76 -22 125 -81
183 -47 47 -73 61 -141 76 -82 17 -105 12 -32 -7z"/>
<path d="M1960 3004 c-38 -26 -140 -127 -140 -139 0 -6 13 -29 30 -51 16 -21
29 -43 29 -49 0 -18 -52 -71 -149 -151 -52 -42 -136 -117 -186 -166 -50 -48
-98 -88 -106 -88 -9 0 -21 7 -28 15 -7 9 -26 25 -42 36 l-29 21 -37 -25 c-20
-13 -61 -45 -89 -71 -53 -47 -53 -48 -38 -77 9 -16 25 -35 36 -42 11 -6 72
-72 137 -146 l117 -133 50 6 c149 18 351 27 379 17 32 -13 32 3 2 -176 -8 -49
-22 -121 -30 -160 -22 -99 -20 -116 16 -155 17 -19 74 -82 126 -140 144 -159
152 -163 199 -106 15 19 47 48 71 65 23 17 42 39 42 48 0 9 -17 35 -37 56
l-38 39 80 74 c44 41 118 107 165 147 47 40 115 100 151 135 37 34 69 62 73
62 3 0 22 -18 42 -40 20 -22 44 -40 54 -40 9 0 33 17 52 38 20 20 52 50 72 65
20 15 36 34 36 40 0 16 -93 128 -174 212 -32 33 -72 80 -88 105 -43 62 -89
110 -107 110 -18 0 -171 -146 -171 -163 0 -6 16 -28 36 -48 42 -44 39 -58 -28
-111 -24 -18 -87 -75 -142 -125 -54 -51 -103 -93 -108 -93 -16 0 -19 26 -7 56
6 16 17 67 24 114 7 47 19 121 26 166 7 44 10 88 6 97 -6 15 -25 16 -217 10
-255 -8 -256 -7 -122 104 48 40 109 95 136 123 27 27 55 50 62 50 7 0 30 -19
52 -42 l40 -41 34 21 c38 23 138 125 138 140 0 13 -53 83 -85 112 -15 14 -53
57 -83 95 -85 107 -184 215 -196 215 -7 0 -23 -7 -36 -16z m80 -150 c0 -8 -5
-12 -10 -9 -6 4 -8 11 -5 16 9 14 15 11 15 -7z m82 -99 c0 -5 -5 -11 -11 -13
-6 -2 -11 4 -11 13 0 9 5 15 11 13 6 -2 11 -8 11 -13z m-27 -55 c3 -5 1 -10
-4 -10 -6 0 -11 5 -11 10 0 6 2 10 4 10 3 0 8 -4 11 -10z m-55 -30 c0 -5 -7
-10 -15 -10 -8 0 -15 5 -15 10 0 6 7 10 15 10 8 0 15 -4 15 -10z m150 -20 c0
-5 -9 -14 -20 -20 -23 -12 -26 -6 -7 15 14 17 27 19 27 5z m-269 -73 c-9 -9
-10 -5 -7 13 6 36 8 37 13 16 3 -10 0 -23 -6 -29z m-1 -47 c0 -5 -4 -10 -10
-10 -5 0 -10 5 -10 10 0 6 5 10 10 10 6 0 10 -4 10 -10z m-162 -339 c3 -10 -2
-12 -22 -7 -23 6 -26 3 -26 -19 0 -16 6 -25 15 -25 8 0 15 -9 15 -20 0 -11 -4
-20 -9 -20 -4 0 -6 -11 -3 -25 3 -18 0 -25 -11 -25 -9 0 -19 5 -22 10 -3 6
-17 10 -31 10 -22 0 -24 4 -22 40 1 40 10 50 24 29 3 -6 0 -15 -7 -20 -11 -6
-11 -11 -1 -21 9 -9 12 -8 12 8 1 19 1 19 15 0 8 -11 15 -15 15 -9 0 7 -5 15
-11 19 -6 4 -8 20 -5 39 4 19 2 36 -4 40 -6 3 -7 0 -4 -9 4 -11 0 -16 -10 -16
-19 0 -22 26 -3 33 27 9 90 2 95 -12z m52 9 c0 -5 -4 -10 -10 -10 -5 0 -10 5
-10 10 0 6 5 10 10 10 6 0 10 -4 10 -10z m33 -9 c3 -14 1 -18 -9 -14 -15 6
-18 16 -7 26 9 10 10 9 16 -12z m-213 -30 c0 -11 -4 -23 -10 -26 -6 -4 -10 5
-10 19 0 14 5 26 10 26 6 0 10 -9 10 -19z m317 13 c-3 -3 -12 -4 -19 -1 -8 3
-5 6 6 6 11 1 17 -2 13 -5z m-77 -43 c0 -12 -20 -25 -27 -18 -7 7 6 27 18 27
5 0 9 -4 9 -9z m-54 -27 c8 3 14 1 14 -4 0 -6 -9 -10 -19 -10 -26 0 -32 -21
-13 -42 13 -16 13 -18 0 -18 -18 0 -45 53 -29 58 6 2 11 8 11 13 0 4 -8 5 -17
2 -16 -6 -16 -5 -5 10 13 15 16 15 29 1 9 -8 22 -13 29 -10z m44 -44 c0 -5 -4
-10 -9 -10 -6 0 -13 5 -16 10 -3 6 1 10 9 10 9 0 16 -4 16 -10z m220 -10 c0
-5 -5 -10 -11 -10 -5 0 -7 5 -4 10 3 6 8 10 11 10 2 0 4 -4 4 -10z m-170 -10
c0 -5 -7 -10 -15 -10 -8 0 -15 5 -15 10 0 6 7 10 15 10 8 0 15 -4 15 -10z
m700 -30 c0 -5 -4 -10 -10 -10 -5 0 -10 5 -10 10 0 6 5 10 10 10 6 0 10 -4 10
-10z m-7 -31 c-6 -6 -9 -19 -6 -28 5 -14 3 -13 -13 2 -16 15 -17 19 -4 27 21
13 36 12 23 -1z m-43 -19 c0 -5 -4 -10 -10 -10 -5 0 -10 5 -10 10 0 6 5 10 10
10 6 0 10 -4 10 -10z m-494 -27 c-10 -10 -19 5 -10 18 6 11 8 11 12 0 2 -7 1
-15 -2 -18z m424 -15 c0 -5 -4 -8 -10 -8 -5 0 -10 10 -10 23 0 18 2 19 10 7 5
-8 10 -18 10 -22z m-480 -8 c0 -5 -4 -10 -10 -10 -5 0 -10 5 -10 10 0 6 5 10
10 10 6 0 10 -4 10 -10z m80 -12 c0 -13 -53 -6 -57 8 -2 7 8 9 27 6 16 -2 30
-9 30 -14z m20 -60 c0 -20 -13 -33 -35 -35 -11 -1 -14 0 -7 3 6 3 9 10 6 16
-4 6 0 14 7 19 20 12 29 11 29 -3z m350 -6 c0 -5 -7 -9 -15 -9 -8 0 -15 4 -15
9 0 4 7 8 15 8 8 0 15 -4 15 -8z m-460 -12 c0 -5 -5 -10 -11 -10 -5 0 -7 5 -4
10 3 6 8 10 11 10 2 0 4 -4 4 -10z m17 -41 c4 -14 11 -18 22 -13 35 14 51 16
51 5 0 -6 -7 -11 -16 -11 -8 0 -12 -5 -9 -10 5 -8 11 -7 20 0 16 14 35 5 35
-15 0 -17 -47 -17 -69 -1 -12 9 -13 7 -8 -6 9 -25 0 -22 -27 9 -15 17 -29 24
-39 20 -24 -9 -21 -26 3 -20 23 6 26 -9 5 -27 -11 -10 -18 -9 -30 3 -23 23
-18 46 11 53 16 4 23 12 20 20 -3 8 1 14 10 14 9 0 18 -9 21 -21z m319 -4 c-3
-9 -11 -13 -16 -10 -8 5 -7 11 1 21 14 18 24 11 15 -11z m65 -6 c-2 -8 -4 -20
-4 -26 0 -15 -47 -18 -47 -3 0 6 10 10 21 10 17 0 20 5 16 21 -3 13 -1 19 6
16 7 -3 10 -11 8 -18z m-381 -67 c0 -5 -7 -17 -15 -28 -13 -16 -16 -17 -25 -4
-7 11 -5 16 5 18 8 2 15 8 15 13 0 5 5 9 10 9 6 0 10 -4 10 -8z m100 5 c0 -2
-10 -15 -21 -28 -21 -24 -21 -24 -15 -2 6 19 4 22 -11 17 -15 -5 -16 -4 -3 5
14 10 50 15 50 8z m190 -7 c12 -8 11 -10 -5 -10 -12 0 -26 -5 -33 -12 -13 -13
-15 -8 -6 16 7 18 22 20 44 6z m-283 -52 c-3 -7 -5 -2 -5 12 0 14 2 19 5 13 2
-7 2 -19 0 -25z m34 -31 c-8 -8 -11 -5 -11 9 0 27 14 41 18 19 2 -9 -1 -22 -7
-28z m-21 -12 c0 -19 -14 -19 -30 0 -7 8 -16 12 -21 9 -5 -3 -9 -1 -9 5 0 5 6
11 13 14 18 6 47 -11 47 -28z m50 -9 c0 -11 -19 -15 -25 -6 -3 5 1 10 9 10 9
0 16 -2 16 -4z m100 -16 c0 -5 -5 -10 -11 -10 -5 0 -7 5 -4 10 3 6 8 10 11 10
2 0 4 -4 4 -10z m-104 -39 c-4 -5 -13 -8 -22 -4 -11 4 -12 8 -3 20 14 16 36 2
25 -16z m34 25 c0 -3 -4 -8 -10 -11 -5 -3 -10 -1 -10 4 0 6 5 11 10 11 6 0 10
-2 10 -4z m-80 -30 c0 -3 -4 -8 -10 -11 -5 -3 -10 -1 -10 4 0 6 5 11 10 11 6
0 10 -2 10 -4z"/>
<path d="M1729 2728 c-41 -34 -120 -106 -177 -160 -56 -54 -107 -98 -113 -98
-5 0 -28 14 -49 31 -28 23 -45 30 -62 26 -37 -10 -148 -105 -148 -127 0 -27
13 -25 52 8 86 73 109 78 164 36 l46 -36 87 84 c47 46 132 121 188 167 100 82
119 104 107 122 -9 16 -19 10 -95 -53z"/>
<path d="M7156 2393 c-88 -87 -222 -214 -296 -283 -169 -156 -220 -208 -220
-220 0 -19 274 -300 292 -300 36 0 16 30 -102 154 -66 70 -120 134 -120 143 0
17 64 82 295 298 245 230 364 348 359 357 -17 27 -56 -2 -208 -149z"/>
<path d="M7309 2418 c-74 -73 -195 -189 -269 -258 -261 -243 -283 -266 -271
-287 6 -10 71 -81 145 -158 l134 -139 92 92 c66 67 89 96 82 105 -6 7 -29 32
-52 56 l-42 44 74 74 c105 106 106 106 140 -97 41 -249 57 -335 84 -450 14
-58 31 -138 39 -179 15 -76 25 -95 57 -112 17 -9 34 3 116 83 53 51 124 118
157 148 113 102 405 390 405 399 0 6 -57 71 -126 145 -84 90 -134 136 -147
136 -24 0 -166 -146 -167 -171 0 -8 16 -30 35 -49 19 -19 35 -43 35 -55 0 -26
-113 -140 -132 -133 -8 4 -23 62 -41 159 -15 85 -39 213 -52 284 -13 72 -36
198 -51 280 -14 83 -30 158 -35 167 -10 19 -48 48 -64 48 -6 0 -71 -60 -146
-132z m-59 -282 c0 -3 -4 -8 -10 -11 -5 -3 -10 -1 -10 4 0 6 5 11 10 11 6 0
10 -2 10 -4z m240 -36 c0 -5 -4 -10 -10 -10 -5 0 -10 5 -10 10 0 6 5 10 10 10
6 0 10 -4 10 -10z m70 -36 c0 -8 -4 -12 -10 -9 -5 3 -10 10 -10 16 0 5 5 9 10
9 6 0 10 -7 10 -16z m-525 -44 c0 -7 -6 -15 -12 -17 -8 -3 -13 4 -13 17 0 13
5 20 13 18 6 -3 12 -11 12 -18z m80 0 c3 -5 1 -10 -4 -10 -6 0 -11 5 -11 10 0
6 2 10 4 10 3 0 8 -4 11 -10z m75 0 c0 -5 -7 -10 -15 -10 -8 0 -15 5 -15 10 0
6 7 10 15 10 8 0 15 -4 15 -10z m364 -67 c-13 -10 -20 -10 -23 -2 -4 14 19 30
33 22 5 -3 1 -12 -10 -20z m-404 -2 c0 -5 -7 -11 -15 -15 -15 -5 -20 5 -8 17
9 10 23 9 23 -2z m356 -68 c-10 -10 -19 5 -10 18 6 11 8 11 12 0 2 -7 1 -15
-2 -18z m-576 -3 c0 -11 7 -20 15 -20 8 0 15 -4 15 -10 0 -14 -23 -13 -38 2
-15 15 -16 48 -2 48 6 0 10 -9 10 -20z m673 -30 c-7 -8 -22 24 -16 34 4 5 10
1 13 -10 4 -10 6 -21 3 -24z m-575 -11 c-2 -6 -8 -10 -13 -10 -5 0 -11 4 -13
10 -2 6 4 11 13 11 9 0 15 -5 13 -11z m435 -30 c4 -15 2 -19 -10 -15 -8 3 -17
6 -19 6 -2 0 -4 7 -4 15 0 23 27 18 33 -6z m132 -59 c3 -5 1 -10 -4 -10 -6 0
-11 5 -11 10 0 6 2 10 4 10 3 0 8 -4 11 -10z m361 -49 c16 -12 21 -22 14 -26
-6 -4 -18 1 -26 11 -14 17 -15 17 -10 2 4 -13 -1 -18 -17 -19 l-22 -2 23 -4
c12 -2 27 -13 32 -24 6 -10 21 -19 33 -20 14 0 17 -3 8 -6 -8 -3 -26 -19 -39
-34 -13 -16 -29 -26 -35 -22 -6 4 -2 13 11 24 23 18 29 39 12 39 -17 0 -25 -5
-22 -13 1 -4 -6 -3 -17 3 -11 5 -23 19 -26 30 -3 11 -10 20 -15 20 -5 0 -7 7
-4 15 4 8 14 15 24 15 10 0 23 7 30 15 16 19 17 19 46 -4z m60 -18 c-7 -7 -26
7 -26 19 0 6 6 6 15 -2 9 -7 13 -15 11 -17z m-20 -30 c-3 -17 -26 -32 -26 -16
0 8 20 33 26 33 1 0 1 -8 0 -17z m-501 -25 c24 -11 34 -28 16 -28 -11 0 -59
39 -49 40 4 0 19 -5 33 -12z m371 -11 c3 -3 1 -14 -5 -24 -9 -16 -11 -16 -12
7 -1 21 -2 22 -6 5 -6 -25 -22 -45 -35 -45 -6 0 -5 7 2 15 16 19 6 47 -15 39
-8 -3 -15 -1 -15 5 0 12 74 10 86 -2z m-111 -17 c3 -5 1 -10 -4 -10 -6 0 -11
5 -11 10 0 6 2 10 4 10 3 0 8 -4 11 -10z m-175 -35 c0 -8 -4 -15 -9 -15 -5 0
-11 7 -15 15 -3 9 0 15 9 15 8 0 15 -7 15 -15z m197 -5 c-1 -12 -5 -16 -10
-11 -5 5 -6 14 -3 20 11 16 15 13 13 -9z m-47 -20 c0 -5 -7 -10 -16 -10 -8 0
-12 5 -9 10 3 6 10 10 16 10 5 0 9 -4 9 -10z m76 -37 c-11 -11 -19 6 -11 24 8
17 8 17 12 0 3 -10 2 -21 -1 -24z m94 21 c0 -8 -5 -12 -10 -9 -6 4 -8 11 -5
16 9 14 15 11 15 -7z m-20 -24 c0 -5 -7 -10 -15 -10 -8 0 -15 5 -15 10 0 6 7
10 15 10 8 0 15 -4 15 -10z m-45 -10 c-3 -5 -12 -10 -18 -10 -7 0 -6 4 3 10
19 12 23 12 15 0z m-55 -65 c-7 -9 -15 -13 -17 -11 -7 7 7 26 19 26 6 0 6 -6
-2 -15z"/>
<path d="M8122 2538 c-21 -27 -102 -191 -102 -208 0 -22 27 -45 70 -59 20 -6
67 -29 105 -51 52 -31 78 -40 104 -38 l36 3 -46 27 c-26 15 -72 37 -104 49
-31 12 -70 33 -87 48 -29 26 -29 27 -15 67 8 22 29 66 47 97 29 51 32 77 11
77 -5 0 -13 -6 -19 -12z"/>
<path d="M2523 2391 c-85 -74 -98 -92 -81 -109 8 -8 29 6 75 48 39 37 73 60
86 60 25 0 76 -48 126 -120 17 -25 62 -77 99 -115 37 -39 80 -88 95 -108 28
-36 47 -43 54 -20 5 14 -107 153 -199 249 -37 40 -68 76 -68 81 0 12 -85 103
-97 103 -5 0 -46 -31 -90 -69z"/>
<path d="M1989 2323 c-52 -3 -71 -9 -85 -25 l-19 -20 130 8 c72 5 151 9 178 9
37 0 47 3 45 15 -3 12 -21 15 -93 16 -50 0 -120 -1 -156 -3z"/>
<path d="M2333 2032 c-54 -51 -84 -87 -88 -107 -6 -28 -4 -27 52 26 32 30 79
72 106 93 37 31 45 41 36 52 -6 8 -14 14 -18 14 -3 0 -43 -35 -88 -78z"/>
<path d="M7739 1973 l-61 -58 5 -53 c4 -35 14 -65 31 -86 22 -30 23 -34 9 -49
-9 -9 -13 -23 -9 -33 6 -15 11 -13 41 16 l35 34 -29 30 c-38 41 -52 71 -44 93
3 10 31 44 60 77 30 32 52 63 50 69 -8 25 -30 15 -88 -40z"/>
<path d="M7257 1942 c-15 -16 -15 -24 -1 -82 8 -36 18 -99 23 -140 10 -77 38
-216 90 -445 20 -87 35 -133 47 -142 28 -20 33 -16 23 20 -39 141 -87 373
-129 625 -16 96 -30 176 -33 178 -2 2 -11 -4 -20 -14z"/>
<path d="M4358 1523 c7 -3 16 -2 19 1 4 3 -2 6 -13 5 -11 0 -14 -3 -6 -6z"/>
<path d="M3309 1303 c-13 -16 -12 -17 4 -4 16 13 21 21 13 21 -2 0 -10 -8 -17
-17z"/>
<path d="M4145 1282 c-97 -33 -188 -92 -222 -143 -46 -70 -5 -83 175 -54 86
14 161 40 149 51 -2 3 -31 -2 -63 -10 -75 -19 -182 -36 -223 -36 -41 0 -42 31
-2 71 35 35 66 37 99 7 16 -15 26 -19 29 -11 10 27 44 61 69 67 20 5 33 1 50
-15 13 -12 24 -28 24 -35 0 -23 28 -23 34 -1 10 38 6 113 -6 125 -16 16 -21
16 -113 -16z m95 -44 l0 -43 -20 25 c-26 33 -26 60 0 60 17 0 20 -7 20 -42z
m-60 23 c0 -5 -15 -12 -32 -16 -18 -4 -42 -8 -53 -11 -11 -2 -2 5 20 15 45 22
65 25 65 12z"/>
<path d="M4615 1286 c-27 -13 -61 -35 -75 -49 -32 -32 -79 -125 -95 -186 l-11
-46 -585 4 -584 3 -23 -22 c-19 -18 -22 -28 -16 -53 12 -55 42 -115 63 -127
12 -6 32 -32 46 -59 22 -45 75 -101 95 -101 5 0 16 -15 25 -33 25 -52 68 -78
150 -90 93 -14 137 1 180 60 l30 42 295 -2 294 -2 9 -38 c6 -25 21 -47 45 -65
31 -23 46 -27 119 -31 79 -3 86 -1 125 25 22 16 51 44 64 64 l24 35 116 11
c65 6 119 16 123 22 5 8 61 13 169 14 157 3 162 2 162 -17 0 -29 45 -92 78
-109 30 -15 185 -24 214 -11 30 12 76 94 95 166 16 65 19 69 46 69 16 0 38 10
52 24 27 27 58 122 53 163 -3 24 -8 28 -38 29 -79 3 -77 2 -85 42 -15 86 -62
107 -111 50 -15 -18 -49 -79 -76 -135 -61 -129 -108 -161 -108 -74 0 21 -6 43
-12 48 -16 12 -277 38 -286 28 -4 -4 -12 -23 -19 -43 l-11 -37 5 46 5 46 -68
7 c-38 4 -84 9 -101 12 -28 5 -34 3 -43 -17 -7 -18 -9 -5 -6 51 9 146 -38 262
-120 296 -53 22 -151 18 -209 -10z m183 -307 c20 -38 12 -214 -13 -264 -25
-50 -79 -89 -105 -75 -46 25 -53 186 -12 266 23 45 87 107 105 101 7 -2 18
-14 25 -28z m890 -170 c3 -82 -14 -154 -38 -154 -32 0 -35 129 -4 203 22 54
39 35 42 -49z m-544 7 c-3 -15 -8 -25 -11 -23 -2 3 -1 17 3 31 3 15 8 25 11
23 2 -3 1 -17 -3 -31z m-1364 -66 l0 -60 -130 0 -130 0 0 60 0 60 130 0 130 0
0 -60z"/>
<path d="M3251 1218 c-4 -13 -11 -47 -15 -77 -6 -46 -5 -53 7 -43 10 9 16 9
25 0 19 -19 14 -30 -10 -23 -22 7 -22 6 -6 -10 16 -17 18 -17 42 -1 21 13 26
24 25 54 -2 90 -47 157 -68 100z m30 -10 c4 -65 2 -78 -8 -83 -16 -6 -27 37
-19 70 7 26 25 35 27 13z m19 -108 c0 -5 -2 -10 -4 -10 -3 0 -8 5 -11 10 -3 6
-1 10 4 10 6 0 11 -4 11 -10z"/>
<path d="M3719 1236 c-2 -3 -90 -10 -194 -17 -105 -6 -191 -13 -193 -14 -9 -8
23 -132 37 -143 16 -13 98 -11 249 4 61 6 91 28 158 115 l45 59 -49 0 c-27 0
-51 -2 -53 -4z"/>
<path d="M5658 1153 c12 -2 30 -2 40 0 9 3 -1 5 -23 4 -22 0 -30 -2 -17 -4z"/>
</g>
</svg>
